<svg xmlns="http://www.w3.org/2000/svg" width="430" height="430" fill="none" viewBox="0 0 430 430"><path stroke="#121331" stroke-linecap="round" stroke-linejoin="round" stroke-miterlimit="10" stroke-width="12" d="M130 290c16.569 0 30-13.431 30-30s-13.431-30-30-30-30 13.431-30 30 13.431 30 30 30"/><path stroke="#121331" stroke-linejoin="round" stroke-width="12" d="M65 360c0-24.853 20.147-45 45-45h40c24.853 0 45 20.147 45 45v15H65z"/><path stroke="#121331" stroke-linecap="round" stroke-linejoin="round" stroke-miterlimit="10" stroke-width="12" d="M300 290c16.569 0 30-13.431 30-30s-13.431-30-30-30-30 13.431-30 30 13.431 30 30 30"/><path stroke="#121331" stroke-linejoin="round" stroke-width="12" d="M235 360c0-24.853 20.147-45 45-45h40c24.853 0 45 20.147 45 45v15H235z"/><mask id="XDokfB-Xqua" width="215" height="173" x="41" y="27" maskUnits="userSpaceOnUse" style="mask-type:alpha"><path fill="#D9D9D9" d="M255.158 27.934H41.376v171.492h213.782v-30.987L250 165h-45c-11.046 0-20-8.954-20-20V90c0-11.046 8.954-20 20-20h50.158z"/></mask><g mask="url(#XDokfB-Xqua)"><path stroke="#185219" stroke-linecap="round" stroke-linejoin="round" stroke-miterlimit="10" stroke-width="12" d="M75 45c-11.046 0-20 8.954-20 20v60c0 11.046 8.954 20 20 20h45v40l60-40h45c11.046 0 20-8.954 20-20V65c0-11.046-8.954-20-20-20z"/></g><path stroke="#185219" stroke-linecap="round" stroke-linejoin="round" stroke-miterlimit="10" stroke-width="12" d="M205 70c-11.046 0-20 8.954-20 20v55c0 11.046 8.954 20 20 20h45l60 40v-40h45c11.046 0 20-8.954 20-20V90c0-11.046-8.954-20-20-20z"/></svg>