<?xml version="1.0" standalone="no"?>
<!DOCTYPE svg PUBLIC "-//W3C//DTD SVG 20010904//EN"
 "http://www.w3.org/TR/2001/REC-SVG-20010904/DTD/svg10.dtd">
<svg version="1.0" xmlns="http://www.w3.org/2000/svg"
 width="424.000000pt" height="424.000000pt" viewBox="0 0 424.000000 424.000000"
 preserveAspectRatio="xMidYMid meet">
<g transform="translate(0.000000,424.000000) scale(0.050000,-0.050000)"
fill="#000000" stroke="none">
<path d="M4228 6802 c-33 -20 -234 -137 -446 -259 l-386 -223 -1248 0 c-686 0
-1248 -3 -1248 -7 0 -4 96 -173 212 -375 117 -203 334 -579 483 -838 149 -258
305 -528 348 -600 l77 -130 0 436 0 436 -180 310 c-99 171 -180 317 -180 324
0 8 415 12 923 9 l923 -6 384 221 c211 121 392 220 402 220 10 -1 396 -219
858 -486 l840 -486 10 -402 10 -403 340 590 c187 324 343 598 347 608 4 11
-104 19 -269 19 l-275 0 -872 502 c-479 277 -898 519 -932 540 -59 35 -63 35
-121 0z"/>
<path d="M5491 6293 c21 -15 190 -114 375 -221 l335 -194 360 6 c197 3 359 1
359 -5 0 -11 -86 -163 -621 -1089 l-289 -500 -10 -458 -10 -457 -810 -469
c-445 -258 -830 -478 -853 -490 -43 -21 -126 22 -685 351 l-67 40 26 -49 c28
-52 472 -821 602 -1043 97 -166 69 -177 229 98 108 185 151 242 217 281 44 26
452 263 906 525 454 262 839 488 855 501 25 21 30 107 30 533 l0 508 194 334
c672 1162 1046 1812 1046 1818 0 4 -502 7 -1114 7 -940 0 -1109 -4 -1075 -27z"/>
<path d="M4040 6036 c-93 -55 -290 -168 -436 -251 -146 -83 -263 -158 -260
-168 3 -9 200 -128 436 -264 l430 -247 6 257 c3 141 3 373 0 515 l-6 259 -170
-101z"/>
<path d="M4360 5422 l0 -721 45 -28 c25 -15 268 -156 540 -313 l495 -285 0
-225 0 -226 -330 190 -330 190 0 163 -1 163 -194 110 c-107 61 -202 113 -210
117 -8 3 -15 -177 -15 -400 l1 -407 481 -277 c590 -340 508 -323 786 -160
l232 137 0 440 0 440 -195 112 c-107 61 -350 201 -540 310 l-345 198 0 225 0
226 75 -40 c41 -22 188 -105 325 -185 l250 -146 6 -163 6 -163 144 -85 c79
-46 173 -102 209 -123 l65 -39 0 409 0 410 -675 390 c-371 214 -709 409 -750
434 l-75 44 0 -722z"/>
<path d="M1880 5749 c0 -6 59 -112 130 -237 l130 -226 0 -1079 0 -1080 415
-238 c528 -304 411 -160 1107 -1369 332 -577 610 -1057 618 -1066 8 -9 90 117
183 280 93 163 343 596 555 963 212 366 382 669 379 673 -4 3 -171 -90 -373
-207 l-365 -213 -182 -316 c-100 -174 -189 -309 -198 -300 -13 14 -320 543
-765 1317 l-161 282 -382 221 -381 221 0 988 0 987 320 185 c176 102 334 194
350 205 19 12 -223 19 -675 19 -388 1 -705 -4 -705 -10z"/>
<path d="M2963 5413 l-243 -141 0 -914 0 -914 539 -312 540 -312 205 119 206
118 5 358 6 358 -104 118 -104 119 103 6 104 6 0 474 0 474 -105 59 c-58 32
-286 163 -507 291 l-403 233 -242 -140z m520 -514 l317 -182 0 -188 0 -189
-330 0 -330 0 0 370 c0 204 6 370 13 370 7 0 155 -82 330 -181z m194 -1073
l125 -143 -6 -182 -6 -181 -320 185 -320 185 -6 154 -6 154 186 6 c105 3 195
-3 207 -14 12 -11 78 -85 146 -164z"/>
<path d="M4360 3101 l0 -523 85 51 c47 28 245 143 440 256 195 112 355 209
355 216 0 6 -178 114 -395 239 -217 125 -415 240 -440 256 l-45 29 0 -524z"/>
</g>
</svg>
