<svg width="38" height="84" viewBox="0 0 38 84" fill="none" id="svg-1274861416_1413" xmlns="http://www.w3.org/2000/svg">
<path d="M15.4715 48.1155C15.4715 48.1155 30.6665 39.573 36.449 48.0255C42.2315 56.478 20.5115 87.3405 5.82646 82.893C-8.85104 78.4455 11.1665 53.973 20.954 53.973" fill="#FF3F51" stroke-width="1px" fill-opacity="1" stroke-opacity="1"></path>
<path d="M15.4715 48.1155C15.4715 48.1155 30.6665 39.573 36.449 48.0255C42.2315 56.478 20.5115 87.3405 5.82646 82.893C-8.85104 78.4455 11.1665 53.973 20.954 53.973" stroke="#070505" stroke-width="1.5" stroke-linecap="round" stroke-linejoin="round" fill-opacity="1" stroke-opacity="1"></path>
<path d="M15.4715 31.5403C15.4715 31.5403 30.6665 22.9978 36.449 31.4503C42.2315 39.9028 20.5115 70.7653 5.82646 66.3178C-8.85104 61.8703 11.1665 37.3978 20.954 37.3978" fill="#FF3F51" stroke-width="1px" fill-opacity="1" stroke-opacity="1"></path>
<path d="M15.4715 31.5403C15.4715 31.5403 30.6665 22.9978 36.449 31.4503C42.2315 39.9028 20.5115 70.7653 5.82646 66.3178C-8.85104 61.8703 11.1665 37.3978 20.954 37.3978" stroke="#070505" stroke-width="1.5" stroke-linecap="round" stroke-linejoin="round" fill-opacity="1" stroke-opacity="1"></path>
<path d="M15.4715 4.0305C15.4715 4.0305 30.6665 -4.51199 36.449 3.94051C42.2315 12.393 20.5115 43.2555 5.82646 38.808C-8.85104 34.3605 11.1665 9.88801 20.954 9.88801" fill="#FF3F51" stroke-width="1px" fill-opacity="1" stroke-opacity="1"></path>
<path d="M15.4715 4.0305C15.4715 4.0305 30.6665 -4.51199 36.449 3.94051C42.2315 12.393 20.5115 43.2555 5.82646 38.808C-8.85104 34.3605 11.1665 9.88801 20.954 9.88801" stroke="#070505" stroke-width="1.5" stroke-linecap="round" stroke-linejoin="round" fill-opacity="1" stroke-opacity="1"></path>
</svg>