<svg width="38" height="84" viewBox="0 0 38 84" fill="none" id="svg-1299918230_1431" xmlns="http://www.w3.org/2000/svg">
<path d="M22.7915 48.4524C22.7915 48.4524 7.59649 39.9099 1.81399 48.3624C-3.96851 56.8149 17.7515 87.6774 32.4365 83.2299C47.114 78.7824 27.0965 54.3099 17.309 54.3099" fill="#FF3F51" stroke-width="1px" fill-opacity="1" stroke-opacity="1"></path>
<path d="M22.7915 48.4524C22.7915 48.4524 7.59649 39.9099 1.81399 48.3624C-3.96851 56.8149 17.7515 87.6774 32.4365 83.2299C47.114 78.7824 27.0965 54.3099 17.309 54.3099" stroke="#070505" stroke-width="1.5" stroke-linecap="round" stroke-linejoin="round" fill-opacity="1" stroke-opacity="1"></path>
<path d="M22.7915 31.8772C22.7915 31.8772 7.59649 23.3347 1.81399 31.7872C-3.96851 40.2397 17.7515 71.1022 32.4365 66.6547C47.114 62.2072 27.0965 37.7347 17.309 37.7347" fill="#FF3F51" stroke-width="1px" fill-opacity="1" stroke-opacity="1"></path>
<path d="M22.7915 31.8772C22.7915 31.8772 7.59649 23.3347 1.81399 31.7872C-3.96851 40.2397 17.7515 71.1022 32.4365 66.6547C47.114 62.2072 27.0965 37.7347 17.309 37.7347" stroke="#070505" stroke-width="1.5" stroke-linecap="round" stroke-linejoin="round" fill-opacity="1" stroke-opacity="1"></path>
<path d="M22.7915 4.36742C22.7915 4.36742 7.59649 -4.17508 1.81399 4.27742C-3.96851 12.7299 17.7515 43.5924 32.4365 39.1449C47.114 34.6974 27.0965 10.2249 17.309 10.2249" fill="#FF3F51" stroke-width="1px" fill-opacity="1" stroke-opacity="1"></path>
<path d="M22.7915 4.36742C22.7915 4.36742 7.59649 -4.17508 1.81399 4.27742C-3.96851 12.7299 17.7515 43.5924 32.4365 39.1449C47.114 34.6974 27.0965 10.2249 17.309 10.2249" stroke="#070505" stroke-width="1.5" stroke-linecap="round" stroke-linejoin="round" fill-opacity="1" stroke-opacity="1"></path>
</svg>