<svg xmlns="http://www.w3.org/2000/svg" width="97" height="58" fill="none"><path fill="#fff" d="M17.82 34.51c-3.842-6.333-4.582-14.642-1.33-21.32C20.975 3.964 32.634-1.153 42.46 1.77c8.925 2.658 15.475 11.684 15.642 20.94 2.353-1.501 5.301-1.797 8.294-.754 2.98 1.029 4.683 2.885 6.56 5.827 1.096-.96 2.289-.805 4.074-1.065 2.295-.353 4.785.008 7.63 1.113 3.029 1.177 7.138 3.466 9.419 7.685 2.178 4.03 1.87 9.048-.74 12.2-2.1 2.538-5.613 3.941-9.5 3.838-.254-.007-.494-.014-.748-.034-1.214-.099-2.717-.353-4.225-.955.118-.411-.368-.227-.72-.544-.484-.414-.623.014-1.037.497l-.323.225c-5.061 5.827-18.19 6.032-21.595 1.163-.288-.221-.049-.45-.372-.352a1.14 1.14 0 0 0-.64.424 1.2 1.2 0 0 0-.184.397c-1.904 1.727-4.276 2.96-6.842 3.427-4.42.818-9.153-.632-12.343-3.806a1.16 1.16 0 0 0-1.223-.273c-5.967 2.207-12.203 2.963-18.545 2.219-4.651-.539-8.146-1.822-10.696-3.936-2.55-2.1-4.682-5.887-3.686-9.63.772-2.895 3.431-5.364 6.798-6.303 2.896-.806 6.285-.595 10.076.603z"/><path stroke="#1B1F1D" stroke-linecap="round" stroke-width=".816" d="M54.584 51.735c3.29 3.361 12.2 7.86 23.092-1.48"/><path fill="#1B1F1D" d="M54.817 51.554c-.262.287-.536.547-.824.82.03-.133.1-.278.184-.396a1.14 1.14 0 0 1 .64-.424"/><path stroke="#1B1F1D" stroke-linecap="round" stroke-miterlimit="10" stroke-width=".816" d="M78.863 50.564c1.508.602 3.011.856 4.225.955.254.02.494.026.748.033 3.887.104 7.4-1.3 9.5-3.837 2.61-3.153 2.918-8.171.74-12.2-2.28-4.22-6.39-6.508-9.42-7.685-2.844-1.106-5.334-1.466-7.63-1.113-1.126.164-2.108.465-2.954.907-.685.357-1.62.1-1.97-.588-1.189-2.328-3.242-4.23-5.709-5.082-2.993-1.042-5.941-.747-8.294.755-.167-9.256-6.717-18.282-15.642-20.94-9.827-2.923-21.486 2.194-25.97 11.42-3.252 6.677-2.512 14.986 1.33 21.32 1.472 2.418 3.38 4.541 5.69 6.18"/><path stroke="#1B1F1D" stroke-linecap="round" stroke-miterlimit="10" stroke-width=".816" d="M83.781 43.182c.65-1.293.598-2.858-.139-4.295-.8-1.545-2.23-2.613-3.827-2.856-2.928-.453-5.966 1.685-6.73 4.767-.673 2.67.355 5.731 2.586 7.77 1.347 1.23 2.615 1.644 3.022 1.908M57.31 47.81a14.1 14.1 0 0 1-2.492 3.743c-.262.288-.536.548-.824.82-1.905 1.728-4.277 2.962-6.842 3.428-4.42.818-9.153-.632-12.343-3.806a1.16 1.16 0 0 0-1.223-.273c-5.967 2.207-12.203 2.963-18.546 2.219-4.65-.539-8.145-1.822-10.695-3.936-2.55-2.1-4.682-5.887-3.686-9.63.772-2.895 3.431-5.364 6.798-6.303 2.895-.805 6.285-.595 10.076.603M51.009 30.02a13.73 13.73 0 0 0-.873-11.387M46.678 29.437q.279-.654.478-1.35c.072-.226.132-.452.178-.691.03-.093.046-.2.062-.293l.045-.199.002-.053s.014-.04.014-.053c.002-.067.017-.134.019-.2.002-.094.032-.2.035-.307.02-.227.04-.467.045-.707.013-.481 0-.95-.041-1.432M25.416 28.829c2.123 5.083 6.884 8.994 12.37 9.822M33.671 32.539c.473.32.973.614 1.487.895.593.31.83.423 1.413.653 1.071.43 2.199.74 3.33.944"/><path stroke="#1B1F1D" stroke-linecap="round" stroke-miterlimit="10" stroke-width=".816" d="M50.504 49.434c-.952 1.098-2.322 1.864-3.734 2.16-1.546.32-3.078.132-4.517-.522M68.532 50.154c-1.406 1.607-3.775 2.226-5.804 1.623M65.197 28.769c2.07 1.112 3.359 3.379 3.39 5.706M90.234 37.886c1.28 2.12 1.205 4.952-.16 7.015M15.507 48.967c-4.164-.78-7.87-3.633-9.748-7.413M17.33 44.83a13.3 13.3 0 0 1-5.088-2.207"/></svg>