<svg width="329" height="107" viewBox="0 0 329 107" fill="none" xmlns="http://www.w3.org/2000/svg">
<path d="M328.969 93.0692C327.521 88.0057 321.812 84.1507 316.665 83.0151C313.571 82.3275 310.507 83.161 307.486 83.5048C306.132 83.6611 304.735 83.8278 303.391 83.8799C299.912 83.9841 295.942 82.2649 294.087 79.629C294.223 79.2227 293.889 78.7747 293.962 78.3579C294.462 75.4302 293.504 72.2525 291.41 69.8666C289.555 67.7516 286.857 66.2721 283.804 65.7095C280.605 65.1156 278.209 65.8241 275.281 67.2098C273.26 65.6262 269.895 64.4072 267.363 63.98C267.259 60.8023 265.936 57.6141 263.727 55.3636C262.133 53.7383 260.039 52.5506 257.788 51.9567C257.903 51.8734 258.038 51.4045 258.143 51.3212C263.467 47.2787 265.821 39.8293 263.748 33.0675C261.831 26.7954 256.444 21.5651 249.703 19.4293C243.64 17.5018 236.711 17.9915 230.189 20.8046C224.792 23.1279 219.77 26.9933 215.238 32.2444C214.009 31.5463 212.665 31.015 211.248 30.7441C206.945 29.9314 202.225 31.3484 198.901 34.4427C196.276 36.8911 194.484 40.4544 193.994 44.226C193.984 44.351 193.869 44.476 193.723 44.4343C190.546 44.2468 187.118 45.2574 184.774 47.0807C182.606 48.7581 181.023 51.3003 180.408 54.0509C180.387 54.1447 180.325 54.1863 180.293 54.2072C180.262 54.228 180.189 54.2593 180.095 54.2176C175.511 52.5923 170.437 53.332 166.52 56.1867C162.008 59.4791 159.477 65.4907 160.237 71.1377C160.758 75.0239 162.8 78.6496 165.718 80.9835C163.905 82.5775 162.727 84.7446 162.456 87.0576C162.144 89.7665 163.29 93.0901 165.27 95.1634C160.894 96.049 155.549 96.0386 151.163 94.7779C150.631 94.6216 150.329 94.705 150.079 95.1947C149.829 95.6843 150.214 95.7677 150.652 96.1011C155.163 99.5497 160.779 101.383 166.332 101.383C168.624 101.383 171.385 100.633 173.573 99.9873C176.168 99.2267 178.126 97.8931 180.543 96.7367C183.721 95.2051 187.201 93.5589 190.723 92.9755C195.161 92.2461 199.652 93.7569 204.111 94.5904C206.57 95.0592 208.976 95.5072 211.331 95.7156C211.341 95.7781 211.352 95.8302 211.383 95.8927C213.394 99.706 217.301 102.363 221.583 102.821C222.083 102.873 222.594 102.894 223.115 102.894C225.094 102.863 226.928 102.467 228.564 101.706C232.273 103.811 237.878 106.186 244.275 106.186C244.39 106.186 244.515 106.186 244.629 106.186C246.057 106.166 247.495 106.03 248.891 105.77C254.069 104.811 258.924 102.509 262.987 99.1225C262.987 99.1225 274.729 104.551 281.356 104.551C281.502 104.551 281.658 104.551 281.804 104.551C286.284 104.488 290.503 103.759 294.358 101.915C296.911 100.685 299.276 99.1225 301.558 97.6014C304.048 95.9448 306.621 94.2465 309.34 93.0692C314.414 90.8917 323.354 90.7563 326.24 94.4654C326.688 95.0488 327.5 95.2259 328.157 94.8925C328.813 94.5591 329.147 93.7986 328.938 93.0901L328.969 93.0692Z" fill="white"/>
<path d="M245.619 37.0582C244.348 36.3184 242.806 36.2247 241.275 36.7873C239.514 37.4437 238.066 38.8919 237.482 40.5693C236.524 43.3615 237.461 46.831 239.868 49.4044C242.379 52.1029 246.13 53.4677 249.912 53.4156C252.892 53.374 255.882 52.4571 258.309 50.613C263.456 46.7059 265.738 39.1211 263.738 32.5677C261.873 26.4518 256.611 21.3571 250.016 19.2629C244.046 17.3667 237.222 17.8563 230.793 20.6277C225.282 23.0136 220.145 26.9936 215.53 32.4739" stroke="#1B1F1D" stroke-width="0.762916" stroke-miterlimit="10" stroke-linecap="round"/>
<path d="M267.374 64.2196C267.415 61.0211 266.134 57.7808 263.894 55.4887C261.893 53.457 259.132 52.1547 256.288 51.8838" stroke="#1B1F1D" stroke-width="0.762916" stroke-miterlimit="10" stroke-linecap="round"/>
<path d="M274.959 67.5331C271.051 64.345 265.509 63.3552 260.737 65.0118" stroke="#1B1F1D" stroke-width="0.762916" stroke-miterlimit="10" stroke-linecap="round"/>
<path d="M282.877 73.5656C280.345 75.1805 279.522 78.9417 281.126 81.6089C282.325 83.5989 284.669 84.7763 287.044 84.745C287.669 84.745 288.305 84.6408 288.92 84.4533C291.639 83.6198 293.806 81.0776 294.317 78.1082C294.786 75.3681 293.889 72.3883 291.92 70.1483C290.149 68.127 287.576 66.7309 284.658 66.1891C279.168 65.1785 273.26 67.5228 269.958 72.0237" stroke="#1B1F1D" stroke-width="0.762916" stroke-miterlimit="10" stroke-linecap="round"/>
<path d="M263.956 98.4669C269.28 102.364 275.969 104.343 282.596 104.249C286.94 104.187 291.264 103.239 295.171 101.374C297.713 100.155 300.078 98.5815 302.37 97.0603C304.923 95.3621 307.559 93.6117 310.382 92.4031C315.894 90.0381 323.937 90.2673 327.125 94.3723C327.355 94.664 327.761 94.7578 328.094 94.5911C328.428 94.4244 328.594 94.0389 328.49 93.6847C327.094 88.8295 322.843 84.8287 317.905 83.7451C314.894 83.0783 311.831 83.4326 308.861 83.766C307.465 83.9222 306.027 84.089 304.621 84.1411C300.901 84.2661 295.859 82.8595 293.879 79.6401" stroke="#1B1F1D" stroke-width="0.762916" stroke-miterlimit="10" stroke-linecap="round"/>
<path d="M220.5 38.7664C219.156 34.7239 215.478 31.5774 211.154 30.7544C207.038 29.9729 202.506 31.3378 199.329 34.3071C196.766 36.6931 195.067 40.1208 194.598 43.7466C194.525 44.2779 194.046 44.6634 193.504 44.6322C190.556 44.455 187.222 45.4032 184.961 47.1535C182.877 48.7789 181.398 51.1752 180.825 53.7694C180.689 54.3737 180.064 54.7176 179.481 54.5092C175.136 52.9672 170.239 53.6236 166.447 56.395C162.092 59.5727 159.664 65.3656 160.394 70.8146C160.925 74.7841 163.082 78.4724 166.155 80.6916C168.395 82.3065 171.125 83.14 173.792 83.0983C175.032 83.0775 176.272 82.8795 177.439 82.4732C181.283 81.1396 184.221 77.6285 184.742 73.7423C185.138 70.7937 184.138 67.7515 182.127 65.8031C179.96 63.6986 176.689 62.9484 173.969 63.9382C171.104 64.9801 169.135 67.9807 169.385 70.9083" stroke="#1B1F1D" stroke-width="0.762916" stroke-miterlimit="10" stroke-linecap="round"/>
<path d="M215.53 81.0978C214.04 81.7333 212.237 81.6187 210.581 80.7748C208.726 79.8267 207.372 78.1701 206.955 76.326C206.142 72.7315 208.372 68.6473 212.05 67.0324C215.415 65.5529 219.812 66.0947 223.25 68.4077C227.647 71.3666 230.189 76.8886 229.585 82.1501C228.97 87.4115 225.23 92.2146 220.27 94.0795C215.228 95.9862 209.872 94.9756 204.205 93.9128C199.62 93.0481 194.88 92.1521 190.243 92.9231C186.555 93.5274 183.169 95.1527 179.898 96.7259C177.48 97.8824 174.969 99.091 172.406 99.8411C164.915 102.039 156.518 100.289 150.371 95.5903C150.058 95.3507 150.308 94.8505 150.694 94.9547C158.852 97.2989 168.156 95.9549 174.897 91.131" stroke="#1B1F1D" stroke-width="0.762916" stroke-miterlimit="10" stroke-linecap="round"/>
<path d="M166.207 81.0464C164.249 82.5363 162.925 84.7659 162.654 87.131C162.352 89.7148 163.311 92.3924 165.176 94.2678L166.207 95.1326" stroke="#1B1F1D" stroke-width="0.762916" stroke-miterlimit="10" stroke-linecap="round"/>
<path d="M212.123 95.6323C214.04 99.2685 217.77 101.8 221.854 102.238C222.344 102.29 222.823 102.311 223.313 102.3C225.25 102.269 227.157 101.863 228.876 100.988C232.825 103.28 238.576 105.718 245.119 105.624C246.484 105.603 247.88 105.478 249.297 105.218C254.6 104.238 259.622 101.79 263.654 98.2995" stroke="#1B1F1D" stroke-width="0.762916" stroke-miterlimit="10" stroke-linecap="round"/>
<path d="M213.404 69.2101C216.665 68.335 220.385 69.481 222.5 72.1274" stroke="#1B1F1D" stroke-width="0.762916" stroke-miterlimit="10" stroke-linecap="round"/>
<path d="M213.029 72.8469C213.571 72.2217 214.352 71.8883 215.165 71.805C215.988 71.7216 216.79 71.9925 217.436 72.4822" stroke="#1B1F1D" stroke-width="0.762916" stroke-miterlimit="10" stroke-linecap="round"/>
<path d="M252.839 48.456C250.454 49.4666 247.536 49.2374 245.359 47.7996C243.265 46.4139 241.952 44.1322 241.723 41.6421" stroke="#1B1F1D" stroke-width="0.762916" stroke-miterlimit="10" stroke-linecap="round"/>
<path d="M256.496 43.8408C254.017 45.6433 250.568 45.8517 247.859 44.4347" stroke="#1B1F1D" stroke-width="0.762916" stroke-miterlimit="10" stroke-linecap="round"/>
<path d="M234.732 37.5998C235.065 36.0995 236.086 34.7555 237.451 34.0366" stroke="#1B1F1D" stroke-width="0.762916" stroke-miterlimit="10" stroke-linecap="round"/>
<path d="M211.206 35.3281C214.811 36.3492 217.759 39.1206 219.041 42.6317" stroke="#1B1F1D" stroke-width="0.762916" stroke-miterlimit="10" stroke-linecap="round"/>
<path d="M212.904 40.1841C215.426 42.3304 216.853 45.6852 216.624 48.9984" stroke="#1B1F1D" stroke-width="0.762916" stroke-miterlimit="10" stroke-linecap="round"/>
<path d="M212.54 46.2158C212.988 48.0808 212.946 50.0395 212.383 51.8732" stroke="#1B1F1D" stroke-width="0.762916" stroke-miterlimit="10" stroke-linecap="round"/>
<path d="M181.637 61.0732C185.461 62.6256 188.139 66.4285 188.149 70.5856" stroke="#1B1F1D" stroke-width="0.762916" stroke-miterlimit="10" stroke-linecap="round"/>
<path d="M188.722 61.9385C191.035 63.9493 192.108 67.0749 191.66 70.0859" stroke="#1B1F1D" stroke-width="0.762916" stroke-miterlimit="10" stroke-linecap="round"/>
<path d="M192.796 62.9175C193.88 64.3969 194.421 66.2828 194.275 68.106" stroke="#1B1F1D" stroke-width="0.762916" stroke-miterlimit="10" stroke-linecap="round"/>
<path d="M212.852 91.4127C207.997 92.017 203.34 90.3708 198.641 89.4331C194.557 88.61 189.983 88.4017 186.43 90.9334" stroke="#1B1F1D" stroke-width="0.762916" stroke-miterlimit="10" stroke-linecap="round"/>
<path d="M195.942 84.9636C192.775 84.1927 189.379 84.6198 186.503 86.1514" stroke="#1B1F1D" stroke-width="0.762916" stroke-miterlimit="10" stroke-linecap="round"/>
<path d="M179.752 74.4199C179.95 77.108 177.355 79.6918 174.646 79.4001" stroke="#1B1F1D" stroke-width="0.762916" stroke-miterlimit="10" stroke-linecap="round"/>
<path d="M259.528 95.6846C255.934 99.9563 250.141 101.988 244.661 101.029" stroke="#1B1F1D" stroke-width="0.762916" stroke-miterlimit="10" stroke-linecap="round"/>
<path d="M253.11 95.5488C250.078 97.643 246.276 98.3932 242.671 97.6743" stroke="#1B1F1D" stroke-width="0.762916" stroke-miterlimit="10" stroke-linecap="round"/>
<path d="M247.38 93.6323C245.525 94.5075 243.431 94.5283 241.566 93.6636" stroke="#1B1F1D" stroke-width="0.762916" stroke-miterlimit="10" stroke-linecap="round"/>
<path d="M248.224 57.1973C243.754 56.4888 239.556 54.5196 236.107 51.5815" stroke="#1B1F1D" stroke-width="0.762916" stroke-miterlimit="10" stroke-linecap="round"/>
<path d="M238.878 57.6456C236.524 56.6037 234.398 55.0201 232.71 53.0718" stroke="#1B1F1D" stroke-width="0.762916" stroke-miterlimit="10" stroke-linecap="round"/>
<path d="M232.554 57.4369C231.669 56.5721 230.783 55.7178 229.887 54.853" stroke="#1B1F1D" stroke-width="0.762916" stroke-miterlimit="10" stroke-linecap="round"/>
<path d="M265.613 77.4414C263.529 79.2334 261.977 81.5777 261.195 84.224" stroke="#1B1F1D" stroke-width="0.762916" stroke-miterlimit="10" stroke-linecap="round"/>
<path d="M259.237 79.5981C258.299 81.0568 257.726 82.5258 257.445 84.2553" stroke="#1B1F1D" stroke-width="0.762916" stroke-miterlimit="10" stroke-linecap="round"/>
<path d="M254.496 81.4419C254.288 82.3171 254.079 83.1922 253.871 84.0674" stroke="#1B1F1D" stroke-width="0.762916" stroke-miterlimit="10" stroke-linecap="round"/>
<path d="M290.076 88.6207C285.357 89.4855 280.376 87.3705 277.782 83.3071" stroke="#1B1F1D" stroke-width="0.762916" stroke-miterlimit="10" stroke-linecap="round"/>
<path d="M285.242 92.1839C282.095 91.6108 279.168 90.048 276.969 87.6934" stroke="#1B1F1D" stroke-width="0.762916" stroke-miterlimit="10" stroke-linecap="round"/>
<path d="M231.918 71.0645C231.106 68.2098 229.126 65.7822 226.501 64.3965" stroke="#1B1F1D" stroke-width="0.762916" stroke-miterlimit="10" stroke-linecap="round"/>
<path d="M232.721 65.168C233.398 66.3245 234.075 67.4705 234.763 68.627" stroke="#1B1F1D" stroke-width="0.762916" stroke-miterlimit="10" stroke-linecap="round"/>
<path d="M232.408 96.7471C232.408 96.7471 232.023 99.5914 229.033 100.925" stroke="#1B1F1D" stroke-width="0.762916" stroke-miterlimit="10" stroke-linecap="round"/>
<path d="M265.425 95.9868C265.425 95.9868 265.009 97.185 263.79 98.1956" stroke="#1B1F1D" stroke-width="0.762916" stroke-miterlimit="10" stroke-linecap="round"/>
<path d="M133.898 47.7555C130.466 48.2983 126.591 48.9403 123.699 46.8577C122.732 46.1552 121.834 44.9922 121.168 44.0625C120.328 42.8796 119.821 41.9247 118.527 41.4423C117.457 41.0412 117.954 41.0068 116.854 41.1573C116.097 41.3998 116.435 41.3991 115.909 41.3758C117.058 40.3683 118.11 39.2898 118.958 38.188L119.268 37.9773L118.989 38.1441C120.532 36.1009 121.325 33.9445 120.525 31.905C119.804 30.0814 119.229 28.1318 118.007 27.1041C116.742 26.0449 114.871 24.8735 113.643 25.8174C113.641 25.7921 113.623 25.7677 113.579 25.7361C113.359 25.57 113.51 25.3844 113.623 25.1247C114.905 22.1138 112.369 18.7604 109.558 17.0881C106.781 15.431 102.588 14.846 100.508 17.4587C100.341 17.662 100.066 17.744 99.8156 17.6471C99.5652 17.5501 99.409 17.3129 99.4287 17.0412C99.8348 9.74431 92.1037 3.6079 84.7737 2.89042C77.5799 2.19121 69.532 9.76824 68.2564 16.9413L68.9761 23.7649C66.6305 22.1021 65.1111 21.0308 62.7032 20.4458C59.3448 19.6396 55.985 19.9417 53.2304 21.3036C50.2448 22.7791 46.856 26.0946 46.2706 29.1454L45.8156 32.587C43.3972 30.9873 40.8053 30.1157 37.9715 30.7712C35.0711 31.447 32.3505 32.9763 30.9044 35.5813C30.8039 35.7642 30.5372 36.4888 30.3258 36.4914C30.1149 36.5024 29.6482 36.4759 29.5288 36.296C28.0871 34.1209 24.9355 33.5492 22.4438 33.9499C20.1115 34.3254 18.2476 34.761 16.113 35.8452C15.767 36.024 15.4125 36.2033 15.0661 36.3736C12.4442 37.6863 9.82473 39.6926 6.84305 39.459C5.07624 39.3227 2.89836 38.9287 1.5846 37.5844C2.06608 39.1921 2.9883 39.3555 4.19876 40.3414C6.31118 42.0755 9.274 42.7585 11.9306 42.1124C12.7993 41.8979 13.6778 41.5475 14.523 41.2073C16.0059 40.6054 17.5391 39.9924 19.2158 40.0234C22.1469 40.099 23.7081 42.2933 25.8368 44.1789C26.9456 45.1616 28.4898 46.5447 29.7199 47.2588C34.0922 49.8226 40.5994 47.7404 43.3816 43.5006C43.5304 43.2729 43.4427 43.7005 43.7007 43.7801C43.9587 43.8597 44.165 44.2465 44.1622 44.5174C44.1609 48.0623 46.0917 51.8278 48.7354 54.0165C51.4497 56.2606 55.6004 56.8478 58.8482 55.8578C60.0389 55.4911 60.9284 54.3788 61.7525 53.6336L63.1719 53.9233C64.8638 55.7048 67.263 56.7725 69.7172 56.7883C72.3749 56.8104 74.986 55.6167 76.7165 53.5976L77.0296 53.4374C74.7824 56.0927 73.7186 56.6219 73.3433 56.8868C84.8815 60.5912 90.0135 58.5807 95.8143 56.2562C96.552 55.9639 97.8923 55.7079 98.5191 55.0745C99.8988 55.0872 100.573 54.3837 101.464 54.2779C103.44 54.048 105.139 52.8849 106.936 51.6491C108.806 50.3671 110.734 49.0399 113.057 48.8171C115.422 48.5838 117.596 49.5533 119.693 50.493C121.105 51.13 122.577 51.7808 124.054 52.0337C127.11 52.5511 130.096 51.2448 133.255 49.8617C135.844 48.7284 137.918 48.1126 140.631 48.0473C138.528 47.1417 136.188 47.3822 133.906 47.7466L133.898 47.7555Z" fill="white"/>
<path d="M108.801 33.3881C107.887 33.8757 107.206 34.5965 106.867 35.4094C106.041 37.4152 107.357 39.597 109.018 40.6271C110.005 41.2354 111.156 41.5646 112.334 41.6047C113.987 41.6707 115.688 41.1844 117.082 40.1726C119.266 38.5782 120.618 35.7835 120.609 32.8652C120.605 30.5135 119.727 28.4358 118.214 27.1612C116.913 26.07 115.16 25.2139 113.603 25.532C114.309 22.2126 112.803 18.4841 109.852 16.726C106.971 15.0067 102.609 15.5641 99.9077 17.7862C99.507 10.4299 93.2673 3.69115 85.8263 2.95407C77.9004 2.16615 70.0165 8.18642 68.6092 16.077C67.5558 21.9948 70.1848 28.1181 75.0031 30.9632C80.1185 33.9874 87.3603 32.5267 90.4993 27.8284C92.155 25.3478 92.6001 22.2028 91.6692 19.6034C90.6501 16.7716 87.9535 14.7042 85.1125 14.5732C82.07 14.4696 79.1471 16.661 78.6027 19.5235C78.324 20.9932 78.7313 22.6386 79.7036 23.9246C80.6218 25.1457 81.9478 25.9141 83.3247 26.0368" stroke="#1B1F1D" stroke-width="0.707934" stroke-miterlimit="10" stroke-linecap="round"/>
<path d="M68.8368 22.7154C66.71 21.3543 64.8361 20.4622 62.6512 19.9332C59.0184 19.0567 55.3642 19.3911 52.3537 20.8764C49.0301 22.5218 46.5632 25.6707 45.9124 29.0887C45.2015 32.8144 46.7378 36.8036 49.6499 38.7836C50.8777 39.6163 52.3131 40.0491 53.7456 40.1013C55.9751 40.188 58.2162 39.3605 59.6784 37.7106C60.981 36.2468 61.5983 34.2941 61.3269 32.4978C61.0281 30.4999 59.6124 28.8225 57.8093 28.3159C55.8518 27.7665 53.6777 28.7429 52.8576 30.5369" stroke="#1B1F1D" stroke-width="0.707934" stroke-miterlimit="10" stroke-linecap="round"/>
<path d="M58.0048 51.0375C57.4192 50.6789 57.0625 50.0037 57.0203 49.1938C56.9723 48.2741 57.3502 47.4084 57.9934 46.9265C59.2882 45.9621 61.4404 46.349 62.5112 47.7399C63.5279 49.0658 63.6015 51.1263 62.6891 52.7728C61.8696 54.2538 60.282 55.4449 58.3501 56.0363C55.1023 57.0263 51.2448 56.2208 48.5305 53.9766C45.8783 51.7884 44.1705 48.0789 44.1717 44.5341C44.1745 44.2632 43.993 44.0273 43.7355 43.9562C43.4775 43.8766 43.2039 43.9839 43.0546 44.2032C40.272 48.4345 33.9866 49.9045 29.6144 47.3407C28.3927 46.6261 27.2396 45.6034 26.1308 44.6206C24.0286 42.7591 21.8639 40.8331 18.9905 40.7292C18.9568 40.7309 18.923 40.7327 18.8888 40.726C17.2117 40.6866 15.679 41.308 14.196 41.9098C13.3508 42.25 12.4728 42.6089 11.6037 42.8149C8.94705 43.4611 5.98423 42.7781 3.87181 41.044C2.90815 40.2482 2.1511 39.1964 1.64811 37.9874C1.55098 37.7471 1.83572 37.5292 2.03901 37.6963C3.28146 38.6467 4.83404 39.2172 6.29491 39.3271C9.3019 39.5594 12.1253 38.38 14.7471 37.0673C15.0936 36.8969 15.448 36.7177 15.794 36.5389C17.9286 35.4547 20.129 34.3332 22.4613 33.9577C24.953 33.557 28.1046 34.1286 29.5463 36.3038C29.6657 36.4837 29.8655 36.5833 30.0764 36.5723C30.2873 36.5613 30.4845 36.4495 30.5845 36.2581C32.0307 33.6531 34.6275 31.6988 37.5279 31.023C40.4284 30.3471 43.3753 30.8872 45.8243 32.5868" stroke="#1B1F1D" stroke-width="0.707934" stroke-miterlimit="10" stroke-linecap="round"/>
<path d="M114.505 41.3725C115.808 40.8985 116.942 41.0593 118.4 41.6008C119.694 42.0832 120.488 43.2008 121.336 44.3749C122.002 45.3046 122.687 46.2587 123.662 46.9608C126.554 49.0434 130.381 48.4377 133.753 47.898C135.557 47.6093 137.804 47.3822 139.757 47.8387C140.005 47.8934 139.973 48.2504 139.73 48.2885C137.419 48.5951 135.144 49.5852 132.928 50.5553C129.768 51.9383 126.782 53.2362 123.726 52.7272C122.241 52.4748 120.777 51.8235 119.365 51.1865C117.269 50.2468 115.103 49.2769 112.73 49.5107C110.407 49.7418 108.479 51.0606 106.608 52.3426C104.812 53.5785 103.113 54.7415 101.136 54.9715C99.1514 55.1935 97.0763 54.3372 95.8355 52.7692C94.5951 51.2095 94.2338 48.9864 94.9057 47.1071C95.6224 45.1154 97.5311 43.7553 99.3499 43.9142C100.302 44 101.231 44.6283 101.771 45.5562C102.217 46.3281 102.303 47.1612 101.992 47.8542" stroke="#1B1F1D" stroke-width="0.707934" stroke-miterlimit="10" stroke-linecap="round"/>
<path d="M73.0099 50.4918C72.4251 50.3108 71.9516 49.8279 71.705 49.1555C71.4291 48.4084 71.4873 47.5763 71.8534 46.9735C72.6022 45.7584 74.4306 45.2908 75.8277 45.9625C77.1636 46.595 78.09 48.1371 78.1345 49.8015C78.18 51.3219 77.5527 52.9197 76.3806 54.2922C74.6585 56.3109 72.039 57.5051 69.3814 57.483C66.7242 57.4693 64.1297 56.2256 62.4326 54.1822" stroke="#1B1F1D" stroke-width="0.707934" stroke-miterlimit="10" stroke-linecap="round"/>
<path d="M73.3868 57.2318C75.9583 58.1974 79.5705 59.4896 83.0128 59.4708C86.8275 59.6186 90.7199 58.9841 94.2419 57.5737C95.4935 57.077 97.4723 55.9247 98.5197 55.0833" stroke="#1B1F1D" stroke-width="0.707934" stroke-miterlimit="10" stroke-linecap="round"/>
<path d="M93.0179 30.2177C90.6155 33.1433 87.2087 35.14 83.4567 35.7079" stroke="#1B1F1D" stroke-width="0.707934" stroke-miterlimit="10" stroke-linecap="round"/>
<path d="M91.9412 35.1984C89.8302 37.0598 87.168 38.2477 84.3743 38.5372" stroke="#1B1F1D" stroke-width="0.707934" stroke-miterlimit="10" stroke-linecap="round"/>
<path d="M90.3461 39.8158C88.3403 40.7749 86.1491 41.2614 83.9311 41.2333" stroke="#1B1F1D" stroke-width="0.707934" stroke-miterlimit="10" stroke-linecap="round"/>
<path d="M97.3508 39.4839C98.91 39.0472 100.59 39.4672 101.812 40.5118" stroke="#1B1F1D" stroke-width="0.707934" stroke-miterlimit="10" stroke-linecap="round"/>
<path d="M69.7285 43.3781C70.7601 42.2329 72.1477 41.4245 73.6439 41.0757" stroke="#1B1F1D" stroke-width="0.707934" stroke-miterlimit="10" stroke-linecap="round"/>
<path d="M68.8807 39.7764C69.5369 39.5477 70.1846 39.3194 70.8404 39.0822" stroke="#1B1F1D" stroke-width="0.707934" stroke-miterlimit="10" stroke-linecap="round"/>
<path d="M64.2036 33.4724C64.2525 35.2211 63.6513 36.9952 62.537 38.3393" stroke="#1B1F1D" stroke-width="0.707934" stroke-miterlimit="10" stroke-linecap="round"/>
<path d="M65.6052 38.3055C65.1883 39.3928 64.4488 40.294 63.4667 40.9203" stroke="#1B1F1D" stroke-width="0.707934" stroke-miterlimit="10" stroke-linecap="round"/>
<path d="M34.77 43.0279C37.132 43.7084 39.7457 42.8868 41.35 41.0435" stroke="#1B1F1D" stroke-width="0.707934" stroke-miterlimit="10" stroke-linecap="round"/>
<path d="M39.0424 39.1419C36.8755 40.0925 34.4123 40.2294 32.1644 39.4668" stroke="#1B1F1D" stroke-width="0.707934" stroke-miterlimit="10" stroke-linecap="round"/>
<path d="M116.04 29.6009C117.052 31.6462 116.88 34.1932 115.556 36.0642" stroke="#1B1F1D" stroke-width="0.707934" stroke-miterlimit="10" stroke-linecap="round"/>
<path d="M113.435 33.3659C113.173 34.0054 112.911 34.6534 112.648 35.2929" stroke="#1B1F1D" stroke-width="0.707934" stroke-miterlimit="10" stroke-linecap="round"/>
<path d="M76.3279 9.49022C78.4396 6.99432 81.8664 5.86805 85.054 6.48012" stroke="#1B1F1D" stroke-width="0.707934" stroke-miterlimit="10" stroke-linecap="round"/>
<path d="M81.7375 9.87684C83.9472 8.77175 86.6308 9.13092 88.5151 10.7077" stroke="#1B1F1D" stroke-width="0.707934" stroke-miterlimit="10" stroke-linecap="round"/>
<path d="M90.0001 7.5498C90.4025 7.80789 90.8046 8.05754 91.2071 8.31563" stroke="#1B1F1D" stroke-width="0.707934" stroke-miterlimit="10" stroke-linecap="round"/>
<path d="M105.401 19.141C107.396 18.614 109.587 19.9209 110.139 21.8972" stroke="#1B1F1D" stroke-width="0.707934" stroke-miterlimit="10" stroke-linecap="round"/>
<path d="M49.9718 50.4949C49.1328 49.1418 49.2999 47.7429 49.7701 46.6276" stroke="#1B1F1D" stroke-width="0.707934" stroke-linecap="round"/>
<path d="M52.9581 51.0712C52.2446 48.7574 52.6474 46.521 53.5669 45.287" stroke="#1B1F1D" stroke-width="0.707934" stroke-linecap="round"/>
</svg>
