<svg xmlns="http://www.w3.org/2000/svg" viewBox="0 0 470 97" width="470" height="97" preserveAspectRatio="xMidYMid slice" style="width: 100%; height: 100%; transform: translate3d(0px, 0px, 0px);"><defs><clipPath id="__lottie_element_3060"><rect width="470" height="97" x="0" y="0"></rect></clipPath></defs><g clip-path="url(#__lottie_element_3060)" fill="rgb(0, 0, 0)" stroke-width="1px" fill-opacity="1" stroke-opacity="1"><g id="6005" transform="matrix(1,0,0,1,255.69508361816406,48.50199890136719)" opacity="1" style="display: block;" fill="rgb(0, 0, 0)" stroke-width="1px" fill-opacity="1" stroke-opacity="1"><g opacity="1" transform="matrix(1,0,0,1,0,0)" fill="rgb(0, 0, 0)" stroke-width="1px" fill-opacity="1" stroke-opacity="1"><path fill="rgb(255,55,180)" fill-opacity="1" d=" M-180.2519989013672,-43.43000030517578 C-182.51499938964844,-43.67599868774414 -184.218994140625,-45.597999572753906 -184.218994140625,-47.862998962402344 C-184.218994140625,-47.862998962402344 184.218994140625,-48.22200012207031 184.218994140625,-48.22200012207031 C184.218994140625,-48.22200012207031 184.218994140625,-43.104000091552734 184.218994140625,-43.104000091552734 C181.58799743652344,-27.459999084472656 165.70899963378906,-28.805999755859375 165.70899963378906,-28.805999755859375 C165.70899963378906,-28.805999755859375 169.5749969482422,-4.659999847412109 149.6009979248047,6.289000034332275 C126.38200378417969,19.01799964904785 106.51000213623047,3.006999969482422 106.51000213623047,3.006999969482422 C107.68900299072266,23.413999557495117 87.47899627685547,53.290000915527344 43.689998626708984,47.487998962402344 C7.767000198364258,42.729000091552734 0.6140000224113464,10.779000282287598 0.6140000224113464,10.779000282287598 C-13.220000267028809,9.508000373840332 -13.864999771118164,25.384000778198242 -34.04899978637695,26.075000762939453 C-69.1050033569336,27.274999618530273 -68.03500366210938,-6.986000061035156 -68.03500366210938,-6.986000061035156 C-72.5199966430664,4.394000053405762 -87.66999816894531,9.458999633789062 -99.95800018310547,5.638999938964844 C-119.54399871826172,-0.45500001311302185 -117.74299621582031,-20.68199920654297 -127.89399719238281,-32.09199905395508 C-126.14900207519531,-25.961000442504883 -130.4199981689453,-16.481000900268555 -142.6020050048828,-17.565000534057617 C-159.67799377441406,-19.086000442504883 -158.552001953125,-41.051998138427734 -180.2519989013672,-43.43000030517578z" stroke-width="1px" stroke-opacity="1"></path></g></g><g id="6006" transform="matrix(1,0,0,1,255.69407653808594,48.499000549316406)" opacity="1" style="display: block;" fill="rgb(0, 0, 0)" stroke-width="1px" fill-opacity="1" stroke-opacity="1"><g opacity="1" transform="matrix(1,0,0,1,0,0)" fill="rgb(0, 0, 0)" stroke-width="1px" fill-opacity="1" stroke-opacity="1"><path fill="rgb(0,0,0)" fill-opacity="1" d=" M-182.28799438476562,-43.847999572753906 C-183.66600036621094,-44.722999572753906 -184.4759979248047,-46.24100112915039 -184.49899291992188,-47.85900115966797 C-184.5030059814453,-48.22200012207031 -183.94000244140625,-48.22200012207031 -183.93600463867188,-47.85900115966797 C-183.9250030517578,-47.02199935913086 -183.68800354003906,-46.19200134277344 -183.22300720214844,-45.50400161743164 C-182.7570037841797,-44.816001892089844 -182.06300354003906,-44.25899887084961 -181.30099487304688,-43.959999084472656 C-180.53900146484375,-43.6609992980957 -179.69900512695312,-43.643001556396484 -178.89599609375,-43.51900100708008 C-177.3979949951172,-43.29100036621094 -175.9199981689453,-42.95100021362305 -174.47799682617188,-42.47999954223633 C-171.9709930419922,-41.65399932861328 -169.61099243164062,-40.428001403808594 -167.5019989013672,-38.84299850463867 C-163.68899536132812,-35.979000091552734 -160.8699951171875,-32.14400100708008 -158.0070037841797,-28.393999099731445 C-155.35299682617188,-24.917999267578125 -152.49000549316406,-21.378000259399414 -148.4669952392578,-19.41900062561035 C-146.11700439453125,-18.274999618530273 -143.5050048828125,-17.770000457763672 -140.9010009765625,-17.750999450683594 C-137.94700622558594,-17.725000381469727 -134.9600067138672,-18.398000717163086 -132.5279998779297,-20.125 C-128.85800170898438,-22.731000900268555 -126.95099639892578,-27.64299964904785 -128.1750030517578,-32.005001068115234 C-128.25,-32.26300048828125 -127.89700317382812,-32.49100112915039 -127.70600128173828,-32.27799987792969 C-127.30799865722656,-31.83300018310547 -126.92900085449219,-31.3700008392334 -126.56500244140625,-30.89900016784668 C-123.49099731445312,-26.913999557495117 -121.6259994506836,-22.17799949645996 -119.78700256347656,-17.54599952697754 C-117.89900207519531,-12.791000366210938 -116.00800323486328,-7.946000099182129 -112.94499969482422,-3.7929999828338623 C-109.53399658203125,0.8389999866485596 -104.7040023803711,4.039000034332275 -99.16100311279297,5.593999862670898 C-93.20899963378906,7.261000156402588 -86.43800354003906,6.809000015258789 -80.9209976196289,4.677999973297119 C-75.40499877929688,2.546999931335449 -70.52999877929688,-1.4830000400543213 -68.31500244140625,-7.052999973297119 C-68.20600128173828,-7.328999996185303 -67.75199890136719,-7.314000129699707 -67.76399993896484,-6.978000164031982 C-67.76399993896484,-6.936999797821045 -67.76399993896484,-6.892000198364258 -67.76399993896484,-6.8470001220703125 C-67.7490005493164,-5.870999813079834 -67.71900177001953,-4.895999908447266 -67.63600158691406,-3.9200000762939453 C-67.4749984741211,-1.9980000257492065 -67.17400360107422,-0.09200000017881393 -66.75,1.784999966621399 C-66.18699645996094,4.25600004196167 -65.40699768066406,6.682000160217285 -64.36000061035156,8.991999626159668 C-63.16600036621094,11.62399959564209 -61.62799835205078,14.109999656677246 -59.72100067138672,16.288999557495117 C-57.582000732421875,18.733999252319336 -55.00400161743164,20.760000228881836 -52.125,22.26300048828125 C-48.59400177001953,24.108999252319336 -44.67599868774414,25.145000457763672 -40.7239990234375,25.575000762939453 C-35.8489990234375,26.106000900268555 -30.72599983215332,25.97100067138672 -26.016000747680664,24.509000778198242 C-22.322999954223633,23.365999221801758 -19.069000244140625,21.332000732421875 -16.12299919128418,18.864999771118164 C-13.675999641418457,16.812000274658203 -11.529999732971191,14.553999900817871 -8.71500015258789,12.760000228881836 C-5.900000095367432,10.965999603271484 -2.7209999561309814,10.206999778747559 0.6069999933242798,10.501999855041504 C0.7269999980926514,10.512999534606934 0.8479999899864197,10.581000328063965 0.878000020980835,10.708000183105469 C0.8960000276565552,10.78600025177002 0.9150000214576721,10.861000061035156 0.9340000152587891,10.935999870300293 C1.3619999885559082,12.62600040435791 1.9550000429153442,14.281999588012695 2.6080000400543213,15.897000312805176 C3.9059998989105225,19.107999801635742 5.539000034332275,22.191999435424805 7.445000171661377,25.089000701904297 C9.993000030517578,28.95800018310547 13.0600004196167,32.48699951171875 16.576000213623047,35.51499938964844 C20.881000518798828,39.21900177001953 25.850000381469727,42.124000549316406 31.17099952697754,44.124000549316406 C37.91899871826172,46.659000396728516 45.14699935913086,47.715999603271484 52.33000183105469,47.917999267578125 C59.12699890136719,48.10900115966797 65.96499633789062,47.39899826049805 72.49099731445312,45.470001220703125 C77.98899841308594,43.84700012207031 83.2249984741211,41.358001708984375 87.8740005493164,38.012001037597656 C91.99500274658203,35.04399871826172 95.64299774169922,31.4060001373291 98.5780029296875,27.26799964904785 C101.22699737548828,23.534000396728516 103.31800079345703,19.39900016784668 104.65799713134766,15.024999618530273 C105.84700012207031,11.14900016784668 106.45500183105469,7.071000099182129 106.22599792480469,3.015000104904175 C106.21099853515625,2.749000072479248 106.53399658203125,2.677999973297119 106.70700073242188,2.815999984741211 C106.78900146484375,2.884000062942505 106.79299926757812,2.884000062942505 106.81500244140625,2.9019999504089355 C110.05799865722656,5.376999855041504 113.86000061035156,7.238999843597412 117.69499969482422,8.592000007629395 C125.16000366210938,11.22700023651123 133.27699279785156,11.706000328063965 140.93299865722656,9.564000129699707 C148.9010009765625,7.335999965667725 156.218994140625,2.681999921798706 160.60299682617188,-4.421000003814697 C163.63900756835938,-9.336999893188477 165.1959991455078,-15.048999786376953 165.61300659179688,-20.775999069213867 C165.7519989013672,-22.68199920654297 165.76699829101562,-24.600000381469727 165.64999389648438,-26.506000518798828 C165.61599731445312,-27.062999725341797 165.5709991455078,-27.6200008392334 165.50799560546875,-28.177000045776367 C165.49600219726562,-28.26300048828125 165.48500061035156,-28.35300064086914 165.4739990234375,-28.44300079345703 C165.45899963378906,-28.54800033569336 165.45899963378906,-28.55500030517578 165.45899963378906,-28.562000274658203 C165.4510040283203,-28.611000061035156 165.44400024414062,-28.663000106811523 165.43600463867188,-28.715999603271484 C165.41000366210938,-28.8799991607666 165.50799560546875,-29.086000442504883 165.70700073242188,-29.070999145507812 C166.64500427246094,-28.992000579833984 167.60899353027344,-29.045000076293945 168.54400634765625,-29.131000518798828 C172.82200622558594,-29.518999099731445 177.06700134277344,-31.187000274658203 179.98300170898438,-34.41699981689453 C182.08799743652344,-36.744998931884766 183.30799865722656,-39.7140007019043 183.875,-42.77199935913086 C184.0399932861328,-43.65399932861328 183.93499755859375,-44.606998443603516 183.93499755859375,-45.50400161743164 C183.93499755859375,-46.4010009765625 183.93499755859375,-47.29899978637695 183.93499755859375,-48.19599914550781 C183.93499755859375,-48.19599914550781 184.21600341796875,-47.915000915527344 184.21600341796875,-47.915000915527344 C184.01699829101562,-47.915000915527344 183.81399536132812,-47.915000915527344 183.61599731445312,-47.915000915527344 C183,-47.915000915527344 182.38099670410156,-47.9119987487793 181.76499938964844,-47.9119987487793 C181.76499938964844,-47.9119987487793 178.71400451660156,-47.9119987487793 178.71400451660156,-47.9119987487793 C177.3179931640625,-47.9119987487793 175.92599487304688,-47.9119987487793 174.5330047607422,-47.90399932861328 C174.5330047607422,-47.90399932861328 169.29100036621094,-47.90399932861328 169.29100036621094,-47.90399932861328 C167.21499633789062,-47.900001525878906 165.1439971923828,-47.89699935913086 163.0679931640625,-47.89699935913086 C163.0679931640625,-47.89699935913086 155.88900756835938,-47.888999938964844 155.88900756835938,-47.888999938964844 C155.88900756835938,-47.888999938964844 147.86900329589844,-47.88199996948242 147.86900329589844,-47.88199996948242 C144.91900634765625,-47.88199996948242 141.96600341796875,-47.874000549316406 139.01600646972656,-47.874000549316406 C135.8179931640625,-47.874000549316406 132.61700439453125,-47.867000579833984 129.41900634765625,-47.867000579833984 C129.41900634765625,-47.867000579833984 119.18099975585938,-47.85599899291992 119.18099975585938,-47.85599899291992 C119.18099975585938,-47.85599899291992 108.29399871826172,-47.84400177001953 108.29399871826172,-47.84400177001953 C108.29399871826172,-47.84400177001953 96.9000015258789,-47.83300018310547 96.9000015258789,-47.83300018310547 C96.9000015258789,-47.83300018310547 84.98100280761719,-47.821998596191406 84.98100280761719,-47.821998596191406 C80.86799621582031,-47.81800079345703 76.86000061035156,-47.81399917602539 72.64099884033203,-47.81100082397461 C68.4229965209961,-47.80699920654297 64.20800018310547,-47.803001403808594 59.9900016784668,-47.79899978637695 C55.66299819946289,-47.79600143432617 51.332000732421875,-47.79199981689453 47.005001068115234,-47.78799819946289 C47.005001068115234,-47.78799819946289 33.84000015258789,-47.777000427246094 33.84000015258789,-47.777000427246094 C29.381000518798828,-47.77299880981445 24.92300033569336,-47.77000045776367 20.464000701904297,-47.76599884033203 C15.972000122070312,-47.762001037597656 11.494999885559082,-47.762001037597656 6.991000175476074,-47.755001068115234 C2.48799991607666,-47.74700164794922 -2.0380001068115234,-47.74300003051758 -6.515999794006348,-47.7400016784668 C-10.993000030517578,-47.736000061035156 -15.465999603271484,-47.731998443603516 -19.944000244140625,-47.72800064086914 C-19.944000244140625,-47.72800064086914 -33.27799987792969,-47.71699905395508 -33.27799987792969,-47.71699905395508 C-37.6879997253418,-47.7130012512207 -42.16899871826172,-47.709999084472656 -46.499000549316406,-47.70600128173828 C-50.83000183105469,-47.70199966430664 -55.25899887084961,-47.69900131225586 -59.49599838256836,-47.69499969482422 C-63.733001708984375,-47.691001892089844 -68.10099792480469,-47.6870002746582 -72.2030029296875,-47.683998107910156 C-76.30500030517578,-47.68000030517578 -80.41100311279297,-47.67599868774414 -84.51300048828125,-47.672000885009766 C-84.51300048828125,-47.672000885009766 -96.41000366210938,-47.6609992980957 -96.41000366210938,-47.6609992980957 C-96.41000366210938,-47.6609992980957 -107.86799621582031,-47.650001525878906 -107.86799621582031,-47.650001525878906 C-107.86799621582031,-47.650001525878906 -118.7770004272461,-47.638999938964844 -118.7770004272461,-47.638999938964844 C-118.7770004272461,-47.638999938964844 -129.0749969482422,-47.62799835205078 -129.0749969482422,-47.62799835205078 C-129.0749969482422,-47.62799835205078 -138.66400146484375,-47.619998931884766 -138.66400146484375,-47.619998931884766 C-138.66400146484375,-47.619998931884766 -147.51699829101562,-47.612998962402344 -147.51699829101562,-47.612998962402344 C-147.51699829101562,-47.612998962402344 -155.5970001220703,-47.60499954223633 -155.5970001220703,-47.60499954223633 C-158.0030059814453,-47.60100173950195 -160.40499877929688,-47.597999572753906 -162.81100463867188,-47.597999572753906 C-162.81100463867188,-47.597999572753906 -169.08900451660156,-47.59000015258789 -169.08900451660156,-47.59000015258789 C-170.8459930419922,-47.59000015258789 -172.59800720214844,-47.59000015258789 -174.35499572753906,-47.58300018310547 C-174.35499572753906,-47.58300018310547 -178.57699584960938,-47.58300018310547 -178.57699584960938,-47.58300018310547 C-179.60499572753906,-47.58300018310547 -180.63299560546875,-47.57899856567383 -181.66200256347656,-47.57899856567383 C-181.66200256347656,-47.57899856567383 -183.5679931640625,-47.57899856567383 -183.5679931640625,-47.57899856567383 C-183.78599548339844,-47.57899856567383 -184,-47.57899856567383 -184.2169952392578,-47.57899856567383 C-184.1230010986328,-47.672000885009766 -184.02999877929688,-47.76599884033203 -183.93600463867188,-47.85900115966797 C-183.93600463867188,-47.49700164794922 -184.49899291992188,-47.49700164794922 -184.49899291992188,-47.85900115966797 C-184.49899291992188,-48.01300048828125 -184.37100219726562,-48.13999938964844 -184.2169952392578,-48.1619987487793 C-184.01800537109375,-48.1619987487793 -183.8159942626953,-48.1619987487793 -183.61700439453125,-48.1619987487793 C-183.00100708007812,-48.1619987487793 -182.3820037841797,-48.16600036621094 -181.76699829101562,-48.16600036621094 C-181.76699829101562,-48.16600036621094 -178.71499633789062,-48.16600036621094 -178.71499633789062,-48.16600036621094 C-177.31900024414062,-48.16600036621094 -175.927001953125,-48.16600036621094 -174.53500366210938,-48.17300033569336 C-174.53500366210938,-48.17300033569336 -169.29200744628906,-48.17300033569336 -169.29200744628906,-48.17300033569336 C-167.21600341796875,-48.176998138427734 -165.14500427246094,-48.180999755859375 -163.06900024414062,-48.180999755859375 C-163.06900024414062,-48.180999755859375 -155.88999938964844,-48.1879997253418 -155.88999938964844,-48.1879997253418 C-155.88999938964844,-48.1879997253418 -147.8699951171875,-48.19599914550781 -147.8699951171875,-48.19599914550781 C-144.9199981689453,-48.19599914550781 -141.9669952392578,-48.202999114990234 -139.01699829101562,-48.202999114990234 C-135.81900024414062,-48.202999114990234 -132.6179962158203,-48.21099853515625 -129.42100524902344,-48.21099853515625 C-129.42100524902344,-48.21099853515625 -119.18299865722656,-48.22200012207031 -119.18299865722656,-48.22200012207031 C-119.18299865722656,-48.22200012207031 -108.29499816894531,-48.233001708984375 -108.29499816894531,-48.233001708984375 C-108.29499816894531,-48.233001708984375 -96.9010009765625,-48.24399948120117 -96.9010009765625,-48.24399948120117 C-96.9010009765625,-48.24399948120117 -84.98200225830078,-48.25600051879883 -84.98200225830078,-48.25600051879883 C-80.86900329589844,-48.25899887084961 -76.86100006103516,-48.26300048828125 -72.64199829101562,-48.266998291015625 C-68.42400360107422,-48.27000045776367 -64.20999908447266,-48.27399826049805 -59.99100112915039,-48.27799987792969 C-55.66400146484375,-48.28200149536133 -51.33300018310547,-48.28499984741211 -47.00600051879883,-48.28900146484375 C-47.00600051879883,-48.28900146484375 -33.840999603271484,-48.29999923706055 -33.840999603271484,-48.29999923706055 C-29.381999969482422,-48.30400085449219 -24.923999786376953,-48.30799865722656 -20.46500015258789,-48.3120002746582 C-15.972999572753906,-48.314998626708984 -11.496000289916992,-48.314998626708984 -6.992000102996826,-48.323001861572266 C-2.489000082015991,-48.33000183105469 2.0369999408721924,-48.33399963378906 6.513999938964844,-48.3380012512207 C10.991999626159668,-48.34199905395508 15.46500015258789,-48.345001220703125 19.941999435424805,-48.3489990234375 C19.941999435424805,-48.3489990234375 33.277000427246094,-48.36000061035156 33.277000427246094,-48.36000061035156 C37.68600082397461,-48.36399841308594 42.16699981689453,-48.36800003051758 46.49800109863281,-48.37099838256836 C50.82899856567383,-48.375 55.257999420166016,-48.37900161743164 59.494998931884766,-48.382999420166016 C63.731998443603516,-48.38600158691406 68.0999984741211,-48.38999938964844 72.2020034790039,-48.39400100708008 C76.30400085449219,-48.39799880981445 80.41000366210938,-48.4010009765625 84.51200103759766,-48.404998779296875 C84.51200103759766,-48.404998779296875 96.40899658203125,-48.41600036621094 96.40899658203125,-48.41600036621094 C96.40899658203125,-48.41600036621094 107.86599731445312,-48.426998138427734 107.86599731445312,-48.426998138427734 C107.86599731445312,-48.426998138427734 118.7760009765625,-48.43899917602539 118.7760009765625,-48.43899917602539 C118.7760009765625,-48.43899917602539 129.07400512695312,-48.45000076293945 129.07400512695312,-48.45000076293945 C129.07400512695312,-48.45000076293945 138.66299438476562,-48.457000732421875 138.66299438476562,-48.457000732421875 C138.66299438476562,-48.457000732421875 147.51600646972656,-48.46500015258789 147.51600646972656,-48.46500015258789 C147.51600646972656,-48.46500015258789 155.5959930419922,-48.47200012207031 155.5959930419922,-48.47200012207031 C158.0019989013672,-48.47600173950195 160.4040069580078,-48.47999954223633 162.8090057373047,-48.47999954223633 C162.8090057373047,-48.47999954223633 169.08799743652344,-48.48699951171875 169.08799743652344,-48.48699951171875 C170.843994140625,-48.48699951171875 172.5970001220703,-48.48699951171875 174.35299682617188,-48.494998931884766 C174.35299682617188,-48.494998931884766 178.5749969482422,-48.494998931884766 178.5749969482422,-48.494998931884766 C179.60400390625,-48.494998931884766 180.6320037841797,-48.499000549316406 181.66000366210938,-48.499000549316406 C181.66000366210938,-48.499000549316406 183.56700134277344,-48.499000549316406 183.56700134277344,-48.499000549316406 C183.78399658203125,-48.499000549316406 183.9980010986328,-48.499000549316406 184.21600341796875,-48.499000549316406 C184.36599731445312,-48.499000549316406 184.4980010986328,-48.37099838256836 184.49400329589844,-48.21799850463867 C184.49400329589844,-47.13800048828125 184.49400329589844,-46.05699920654297 184.49400329589844,-44.97700119018555 C184.49400329589844,-44.41299819946289 184.5050048828125,-43.84400177001953 184.49400329589844,-43.2760009765625 C184.47900390625,-42.611000061035156 184.2760009765625,-41.92300033569336 184.11500549316406,-41.2760009765625 C183.3719940185547,-38.345001220703125 181.96400451660156,-35.58300018310547 179.80299377441406,-33.441001892089844 C178.08399963378906,-31.739999771118164 175.96299743652344,-30.4950008392334 173.68499755859375,-29.69099998474121 C171.2010040283203,-28.812999725341797 168.3520050048828,-28.308000564575195 165.7030029296875,-28.52899932861328 C165.7030029296875,-28.52899932861328 165.97300720214844,-28.884000778198242 165.97300720214844,-28.884000778198242 C165.9810028076172,-28.834999084472656 165.98399353027344,-28.783000946044922 165.99600219726562,-28.733999252319336 C166.08599853515625,-28.35300064086914 166.0970001220703,-27.930999755859375 166.13099670410156,-27.54199981689453 C166.19400024414062,-26.834999084472656 166.23899841308594,-26.125 166.26199340820312,-25.415000915527344 C166.33700561523438,-23.243000030517578 166.2429962158203,-21.06399917602539 165.99200439453125,-18.902999877929688 C165.2790069580078,-12.824000358581543 163.25599670410156,-6.835999965667725 159.552001953125,-1.9049999713897705 C154.4029998779297,4.951000213623047 146.25100708007812,9.265000343322754 137.8939971923828,10.835000038146973 C130.35000610351562,12.255000114440918 122.54000091552734,11.230999946594238 115.46600341796875,8.32699966430664 C112.26799774169922,7.013999938964844 109.01499938964844,5.38100004196167 106.30899810791016,3.2009999752044678 C106.30899810791016,3.2009999752044678 106.78900146484375,3.003000020980835 106.78900146484375,3.003000020980835 C106.84200286865234,3.9570000171661377 106.85299682617188,4.914000034332275 106.81500244140625,5.870999813079834 C106.65799713134766,10.109999656677246 105.6780014038086,14.307999610900879 104.11699676513672,18.24799919128418 C102.37200164794922,22.652000427246094 99.89900207519531,26.75200080871582 96.86599731445312,30.39299964904785 C93.50800323486328,34.426998138427734 89.45800018310547,37.874000549316406 84.96600341796875,40.595001220703125 C79.85099792480469,43.698001861572266 74.18399810791016,45.84400177001953 68.33699798583984,47.09199905395508 C61.30699920654297,48.590999603271484 54.04199981689453,48.8120002746582 46.895999908447266,48.13100051879883 C40.047000885009766,47.48099899291992 33.321998596191406,45.941001892089844 27.08799934387207,42.987998962402344 C22.1299991607666,40.63999938964844 17.586000442504883,37.45500183105469 13.6899995803833,33.60100173950195 C10.52299976348877,30.468000411987305 7.7870001792907715,26.9060001373291 5.534999847412109,23.06999969482422 C3.9170000553131104,20.319000244140625 2.5360000133514404,17.422000885009766 1.4479999542236328,14.420000076293945 C1.0240000486373901,13.253999710083008 0.6110000014305115,12.0649995803833 0.3409999907016754,10.854000091552734 C0.3409999907016754,10.854000091552734 0.6110000014305115,11.059000015258789 0.6110000014305115,11.059000015258789 C-0.28200000524520874,10.97700023651123 -1.1829999685287476,10.958000183105469 -2.0799999237060547,11.029000282287598 C-5.307000160217285,11.279999732971191 -8.095999717712402,12.800999641418457 -10.572999954223633,14.793999671936035 C-13.206999778747559,16.91699981689453 -15.586999893188477,19.336000442504883 -18.356000900268555,21.29800033569336 C-21.79400062561035,23.72800064086914 -25.701000213623047,25.312999725341797 -29.865999221801758,25.964000701904297 C-34.625,26.70800018310547 -39.665000915527344,26.535999298095703 -44.382999420166016,25.555999755859375 C-48.04600143432617,24.79400062561035 -51.599998474121094,23.433000564575195 -54.72999954223633,21.37299919128418 C-57.375,19.631000518798828 -59.68000030517578,17.417999267578125 -61.56399917602539,14.87600040435791 C-63.25600051879883,12.588000297546387 -64.59200286865234,10.053999900817871 -65.62100219726562,7.4070000648498535 C-66.50599670410156,5.126999855041504 -67.15899658203125,2.759999990463257 -67.61000061035156,0.3569999933242798 C-67.93299865722656,-1.3890000581741333 -68.15799713134766,-3.1540000438690186 -68.26300048828125,-4.926000118255615 C-68.30400085449219,-5.610000133514404 -68.33799743652344,-6.301000118255615 -68.31500244140625,-6.988999843597412 C-68.31500244140625,-6.988999843597412 -67.76399993896484,-6.914000034332275 -67.76399993896484,-6.914000034332275 C-68.02999877929688,-6.241000175476074 -68.3270034790039,-5.583000183105469 -68.66799926757812,-4.943999767303467 C-71.48699951171875,0.3490000069141388 -76.7030029296875,3.9639999866485596 -82.34400177001953,5.765999794006348 C-88.31800079345703,7.671999931335449 -94.91999816894531,7.671999931335449 -100.86100006103516,5.638999938964844 C-103.66400146484375,4.677999973297119 -106.30999755859375,3.302000045776367 -108.64099884033203,1.4709999561309814 C-110.72000122070312,-0.16699999570846558 -112.4990005493164,-2.1549999713897705 -113.99600219726562,-4.330999851226807 C-116.97599792480469,-8.663999557495117 -118.85199737548828,-13.755000114440918 -120.74400329589844,-18.483999252319336 C-122.63500213623047,-23.21299934387207 -124.66899871826172,-28.031999588012695 -128.08799743652344,-31.888999938964844 C-128.08799743652344,-31.888999938964844 -127.61900329589844,-32.1619987487793 -127.61900329589844,-32.1619987487793 C-127.4800033569336,-31.67300033569336 -127.38300323486328,-31.172000885009766 -127.31900024414062,-30.66699981689453 C-126.72599792480469,-25.937999725341797 -129.25599670410156,-21.172000885009766 -133.43299865722656,-18.89900016784668 C-136.2469940185547,-17.3700008392334 -139.54600524902344,-16.993000030517578 -142.70199584960938,-17.29199981689453 C-145.1300048828125,-17.520000457763672 -147.49099731445312,-18.20400047302246 -149.61900329589844,-19.40399932861328 C-153.6269989013672,-21.665000915527344 -156.43800354003906,-25.426000595092773 -159.16299438476562,-29.018999099731445 C-162.1580047607422,-32.95899963378906 -165.26100158691406,-36.90999984741211 -169.52499389648438,-39.56800079345703 C-171.99000549316406,-41.104000091552734 -174.718994140625,-42.143001556396484 -177.56300354003906,-42.72700119018555 C-178.38900756835938,-42.89500045776367 -179.25999450683594,-43.02899932861328 -180.05499267578125,-43.12300109863281 C-180.8509979248047,-43.215999603271484 -181.60499572753906,-43.41400146484375 -182.28799438476562,-43.847999572753906z" stroke-width="1px" stroke-opacity="1"></path></g></g><g id="6007" transform="matrix(1,0,0,1,206.90109252929688,36.947998046875)" opacity="1" style="display: block;" fill="rgb(0, 0, 0)" stroke-width="1px" fill-opacity="1" stroke-opacity="1"><g opacity="1" transform="matrix(1,0,0,1,0,0)" fill="rgb(0, 0, 0)" stroke-width="1px" fill-opacity="1" stroke-opacity="1"><path fill="rgb(0,0,0)" fill-opacity="1" d=" M-9.592000007629395,-13.26200008392334 C-15.541000366210938,-9.336999893188477 -18.95599937438965,-2.489000082015991 -18.959999084472656,4.565999984741211 C-18.959999084472656,4.565999984741211 -18.96299934387207,4.568999767303467 -18.96299934387207,4.568999767303467 C-18.96299934387207,4.932000160217285 -19.525999069213867,4.932000160217285 -19.525999069213867,4.568999767303467 C-19.525999069213867,3.611999988555908 -19.469999313354492,2.6589999198913574 -19.354000091552734,1.7130000591278076 C-18.479000091552734,-5.307000160217285 -14.192999839782715,-11.751999855041504 -7.797999858856201,-14.944000244140625 C-4.73199987411499,-16.476999282836914 -1.4110000133514404,-17.216999053955078 2.1510000228881836,-16.947999954223633 C5.711999893188477,-16.679000854492188 9.16100025177002,-15.378000259399414 12.085000038146973,-13.340999603271484 C14.52400016784668,-11.640000343322754 16.569000244140625,-9.38599967956543 17.868000030517578,-6.702000141143799 C19.020000457763672,-4.316999912261963 19.575000762939453,-1.6699999570846558 19.523000717163086,0.9769999980926514 C19.424999237060547,5.9670000076293945 17.222000122070312,11.100000381469727 13.241000175476074,14.232999801635742 C11.348999977111816,15.723999977111816 9.10099983215332,16.700000762939453 6.695000171661377,16.94300079345703 C3.937000036239624,17.222999572753906 1.2009999752044678,16.490999221801758 -1.2309999465942383,15.215999603271484 C-1.5499999523162842,15.043999671936035 -1.2649999856948853,14.562000274658203 -0.9459999799728394,14.729999542236328 C-0.3109999895095825,15.065999984741211 0.3449999988079071,15.364999771118164 1.0210000276565552,15.612000465393066 C3.378000020980835,16.47599983215332 5.940999984741211,16.711000442504883 8.383999824523926,16.076000213623047 C10.609999656677246,15.496000289916992 12.598999977111816,14.248000144958496 14.201000213623047,12.621000289916992 C17.649999618530273,9.114999771118164 19.323999404907227,3.996999979019165 18.899999618530273,-0.8659999966621399 C18.674999237060547,-3.446000099182129 17.82699966430664,-5.953999996185303 16.42300033569336,-8.130000114440918 C14.782999992370605,-10.67199993133545 12.425999641418457,-12.670999526977539 9.769000053405762,-14.107000350952148 C6.6579999923706055,-15.788999557495117 3.130000114440918,-16.634000778198242 -0.4129999876022339,-16.402000427246094 C-3.684999942779541,-16.18899917602539 -6.860000133514404,-15.064000129699707 -9.592000007629395,-13.26200008392334z" stroke-width="1px" stroke-opacity="1"></path></g></g><g id="6008" transform="matrix(1,0,0,1,286.63909912109375,44.334999084472656)" opacity="1" style="display: block;" fill="rgb(0, 0, 0)" stroke-width="1px" fill-opacity="1" stroke-opacity="1"><g opacity="1" transform="matrix(1,0,0,1,0,0)" fill="rgb(0, 0, 0)" stroke-width="1px" fill-opacity="1" stroke-opacity="1"><path fill="rgb(0,0,0)" fill-opacity="1" d=" M-30,-0.6420000195503235 C-31.242000579833984,4.441999912261963 -31.204999923706055,9.769000053405762 -30.059999465942383,14.868000030517578 C-30.059999465942383,14.868000030517578 -30.052000045776367,14.868000030517578 -30.052000045776367,14.868000030517578 C-29.974000930786133,15.218999862670898 -30.51799964904785,15.369000434875488 -30.597000122070312,15.017000198364258 C-30.89299964904785,13.701000213623047 -31.121999740600586,12.37399959564209 -31.27199935913086,11.031999588012695 C-31.854000091552734,5.885000228881836 -31.264999389648438,0.6169999837875366 -29.486000061035156,-4.252999782562256 C-27.819000244140625,-8.817999839782715 -25.143999099731445,-13.005000114440918 -21.683000564575195,-16.424999237060547 C-18.325000762939453,-19.74799919128418 -14.234000205993652,-22.334999084472656 -9.756999969482422,-23.875999450683594 C-4.99399995803833,-25.517000198364258 0.33899998664855957,-25.801000595092773 5.109000205993652,-25.239999771118164 C9.878999710083008,-24.679000854492188 14.559000015258789,-23.202999114990234 18.656999588012695,-20.676000595092773 C22.461999893188477,-18.332000732421875 25.58099937438965,-15.291999816894531 27.927000045776367,-11.218000411987305 C30.27199935913086,-7.14300012588501 31.461999893188477,-2.444000005722046 31.488000869750977,2.246999979019165 C31.513999938964844,7.0960001945495605 30.09600067138672,11.906999588012695 27.239999771118164,15.85099983215332 C24.635000228881836,19.451000213623047 20.927000045776367,22.250999450683594 16.858999252319336,23.865999221801758 C12.791000366210938,25.481000900268555 8.276000022888184,25.944000244140625 3.9790000915527344,25.062000274658203 C3.622999906539917,24.98699951171875 3.7769999504089355,24.448999404907227 4.129000186920166,24.520000457763672 C5.150000095367432,24.732999801635742 6.185999870300293,24.867000579833984 7.229000091552734,24.920000076293945 C11.52299976348877,25.143999099731445 15.842000007629395,24.06399917602539 19.572999954223633,21.95199966430664 C23.41200065612793,19.780000686645508 26.590999603271484,16.520000457763672 28.57200050354004,12.583999633789062 C30.783000946044922,8.194999694824219 31.33799934387207,3.186000108718872 30.628999710083008,-1.6399999856948853 C29.982999801635742,-6.025000095367432 28.26799964904785,-10.222999572753906 25.562000274658203,-13.74899959564209 C22.860000610351562,-17.270000457763672 19.242000579833984,-20.020999908447266 15.21500015258789,-21.882999420166016 C10.779999732971191,-23.93199920654297 5.798999786376953,-24.885000228881836 1.003000020980835,-24.94099998474121 C-3.7929999828338623,-24.996999740600586 -8.616000175476074,-24.033000946044922 -12.819000244140625,-22.013999938964844 C-17.02199935913086,-19.9950008392334 -20.72599983215332,-17.023000717163086 -23.660999298095703,-13.416000366210938 C-26.690000534057617,-9.692999839782715 -28.863000869750977,-5.296000003814697 -30,-0.6420000195503235z" stroke-width="1px" stroke-opacity="1"></path></g></g><g id="6009" transform="matrix(1,0,0,1,342.4930725097656,55.025001525878906)" opacity="1" style="display: block;" fill="rgb(0, 0, 0)" stroke-width="1px" fill-opacity="1" stroke-opacity="1"><g opacity="1" transform="matrix(1,0,0,1,0,0)" fill="rgb(0, 0, 0)" stroke-width="1px" fill-opacity="1" stroke-opacity="1"><path fill="rgb(0,0,0)" fill-opacity="1" d=" M5.170000076293945,-11.95300006866455 C5.144000053405762,-12.192000389099121 5.144000053405762,-12.204000473022461 5.113999843597412,-12.383000373840332 C5.113999843597412,-12.383000373840332 5.118000030517578,-12.378999710083008 5.118000030517578,-12.378999710083008 C5.060999870300293,-12.734000205993652 5.605999946594238,-12.883999824523926 5.6620001792907715,-12.529000282287598 C5.785999774932861,-11.758999824523926 5.8379998207092285,-10.973999977111816 5.875999927520752,-10.196000099182129 C6.052000045776367,-6.421000003814697 5.605999946594238,-2.555000066757202 4.360000133514404,1.0260000228881836 C2.618000030517578,6.0279998779296875 -0.7820000052452087,10.192000389099121 -5.48799991607666,12.696999549865723 C-5.807000160217285,12.864999771118164 -6.0920000076293945,12.383000373840332 -5.7729997634887695,12.211000442504883 C-3.0450000762939453,10.756999969482422 -0.6660000085830688,8.72700023651123 1.1130000352859497,6.196000099182129 C3.6540000438690186,2.5810000896453857 4.9079999923706055,-1.7929999828338623 5.244999885559082,-6.163000106811523 C5.361999988555908,-7.6539998054504395 5.376999855041504,-9.16100025177002 5.2829999923706055,-10.656000137329102 C5.256999969482422,-11.09000015258789 5.218999862670898,-11.52299976348877 5.170000076293945,-11.95300006866455z" stroke-width="1px" stroke-opacity="1"></path></g></g><g id="6010" transform="matrix(1,0,0,1,293.82208251953125,49.777000427246094)" opacity="1" style="display: block;" fill="rgb(0, 0, 0)" stroke-width="1px" fill-opacity="1" stroke-opacity="1"><g opacity="1" transform="matrix(1,0,0,1,0,0)" fill="rgb(0, 0, 0)" stroke-width="1px" fill-opacity="1" stroke-opacity="1"><path fill="rgb(0,0,0)" fill-opacity="1" d=" M6.373000144958496,0.8460000157356262 C8.647000312805176,-1.3179999589920044 10.873000144958496,-4.144999980926514 11.439000129699707,-7.307000160217285 C11.439000129699707,-7.307000160217285 11.439000129699707,-7.302999973297119 11.439000129699707,-7.302999973297119 C11.503000259399414,-7.658999919891357 12.04699993133545,-7.505000114440918 11.984000205993652,-7.1539998054504395 C11.680000305175781,-5.464000225067139 10.869000434875488,-3.878999948501587 9.918999671936035,-2.4619998931884766 C7.71999979019165,0.8240000009536743 4.556000232696533,3.5339999198913574 1.0290000438690186,5.316999912261963 C-2.930999994277954,7.316999912261963 -7.434000015258789,8.0649995803833 -11.788000106811523,7.063000202178955 C-12.140000343322754,6.980000019073486 -11.989999771118164,6.438000202178955 -11.63700008392334,6.520999908447266 C-9.194000244140625,7.080999851226807 -6.660999774932861,7.099999904632568 -4.206999778747559,6.584000110626221 C-0.22499999403953552,5.750999927520752 3.446000099182129,3.634999990463257 6.373000144958496,0.8460000157356262z" stroke-width="1px" stroke-opacity="1"></path></g></g><g id="6011" transform="matrix(1,0,0,1,377.1070861816406,39.98699951171875)" opacity="1" style="display: block;" fill="rgb(0, 0, 0)" stroke-width="1px" fill-opacity="1" stroke-opacity="1"><g opacity="1" transform="matrix(1,0,0,1,0,0)" fill="rgb(0, 0, 0)" stroke-width="1px" fill-opacity="1" stroke-opacity="1"><path fill="rgb(0,0,0)" fill-opacity="1" d=" M-8.074999809265137,-0.8730000257492065 C-9.388999938964844,-2.009999990463257 -10.694999694824219,-3.2880001068115234 -11.670000076293945,-4.735000133514404 C-11.670000076293945,-4.735000133514404 -11.673999786376953,-4.735000133514404 -11.673999786376953,-4.735000133514404 C-11.876999855041504,-5.038000106811523 -11.388999938964844,-5.317999839782715 -11.185999870300293,-5.019000053405762 C-10.859999656677246,-4.5370001792907715 -10.503000259399414,-4.113999843597412 -10.109000205993652,-3.6689999103546143 C-8.053000450134277,-1.3289999961853027 -5.538000106811523,0.621999979019165 -2.760999917984009,2.0390000343322754 C1.6299999952316284,4.2820000648498535 6.579999923706055,4.995999813079834 11.454999923706055,4.353000164031982 C11.8149995803833,4.303999900817871 11.807999610900879,4.86899995803833 11.454999923706055,4.914000034332275 C8.472000122070312,5.306000232696533 5.427999973297119,5.216000080108643 2.489000082015991,4.543000221252441 C-1.4210000038146973,3.6459999084472656 -5.046999931335449,1.7359999418258667 -8.074999809265137,-0.8730000257492065z" stroke-width="1px" stroke-opacity="1"></path></g></g><g id="6012" transform="matrix(1,0,0,1,417.47607421875,11.110000610351562)" opacity="1" style="display: block;" fill="rgb(0, 0, 0)" stroke-width="1px" fill-opacity="1" stroke-opacity="1"><g opacity="1" transform="matrix(1,0,0,1,0,0)" fill="rgb(0, 0, 0)" stroke-width="1px" fill-opacity="1" stroke-opacity="1"><path fill="rgb(0,0,0)" fill-opacity="1" d=" M-2.9769999980926514,-7.86899995803833 C0.7229999899864197,-3.1510000228881836 3.0390000343322754,2.6689999103546143 4.193999767303467,8.505000114440918 C4.193999767303467,8.505000114440918 4.197999954223633,8.50100040435791 4.197999954223633,8.50100040435791 C4.265999794006348,8.855999946594238 3.7249999046325684,9.005999565124512 3.6540000438690186,8.649999618530273 C3.2109999656677246,6.421999931335449 2.6029999256134033,4.228000164031982 1.815000057220459,2.0929999351501465 C0.8059999942779541,-0.6320000290870667 -0.49300000071525574,-3.263000011444092 -2.0989999771118164,-5.690000057220459 C-2.7109999656677246,-6.617000102996826 -3.359999895095825,-7.554999828338623 -4.125999927520752,-8.369999885559082 C-4.374000072479248,-8.631999969482422 -3.9760000705718994,-9.031999588012695 -3.7279999256134033,-8.765999794006348 C-3.4619998931884766,-8.482000350952148 -3.2179999351501465,-8.175000190734863 -2.9769999980926514,-7.86899995803833z" stroke-width="1px" stroke-opacity="1"></path></g></g><g id="6013" transform="matrix(1,0,0,1,392.02606201171875,19.135000228881836)" opacity="1" style="display: block;" fill="rgb(0, 0, 0)" stroke-width="1px" fill-opacity="1" stroke-opacity="1"><g opacity="1" transform="matrix(1,0,0,1,0,0)" fill="rgb(0, 0, 0)" stroke-width="1px" fill-opacity="1" stroke-opacity="1"><path fill="rgb(0,0,0)" fill-opacity="1" d=" M18.273000717163086,-5.116000175476074 C18.58799934387207,-4.364999771118164 18.888999938964844,-3.5840001106262207 19.065000534057617,-2.7839999198913574 C19.065000534057617,-2.7839999198913574 19.06100082397461,-2.7839999198913574 19.06100082397461,-2.7839999198913574 C19.13599967956543,-2.431999921798706 18.59600067138672,-2.2829999923706055 18.517000198364258,-2.634000062942505 C18.506000518798828,-2.686000108718872 18.4950008392334,-2.739000082015991 18.479999542236328,-2.7869999408721924 C17.638999938964844,-5.784999847412109 16.033000946044922,-8.585000038146973 13.85200023651123,-10.821000099182129 C11.95300006866455,-12.772000312805176 9.607999801635742,-14.24899959564209 7.0289998054504395,-15.145999908447266 C3.4600000381469727,-16.386999130249023 -0.4390000104904175,-16.55900001525879 -4.165999889373779,-16.069000244140625 C-7.50600004196167,-15.631999969482422 -10.741000175476074,-14.335000038146973 -13.270000457763672,-12.088000297546387 C-15.484999656677246,-10.118000030517578 -17.07200050354004,-7.519999980926514 -17.882999420166016,-4.675000190734863 C-19.493000030517578,0.984000027179718 -17.988000869750977,7.388000011444092 -13.67199993133545,11.484999656677246 C-10.838000297546387,14.177000045776367 -7.013999938964844,15.484999656677246 -3.2009999752044678,16.016000747680664 C-1.1710000038146973,16.299999237060547 0.9570000171661377,16.42300033569336 3.002000093460083,16.218000411987305 C3.36299991607666,16.18000030517578 3.3589999675750732,16.740999221801758 3.002000093460083,16.77899932861328 C2.8369998931884766,16.797000885009766 2.671999931335449,16.80500030517578 2.506999969482422,16.81599998474121 C-4.041999816894531,17.204999923706055 -11.420000076293945,15.555999755859375 -15.619999885559082,10.168999671936035 C-19.343000411987305,5.395999908447266 -20.070999145507812,-1.2920000553131104 -17.709999084472656,-6.824999809265137 C-16.5049991607666,-9.642999649047852 -14.508999824523926,-12.083999633789062 -11.960000038146973,-13.800000190734863 C-8.842000007629395,-15.901000022888184 -4.980000019073486,-16.719999313354492 -1.4299999475479126,-16.85099983215332 C2.121000051498413,-16.98200035095215 5.71999979019165,-16.465999603271484 8.958000183105469,-14.967000007629395 C11.390000343322754,-13.840999603271484 13.54800033569336,-12.166999816894531 15.251999855041504,-10.107000350952148 C16.50200080871582,-8.604000091552734 17.514999389648438,-6.914000034332275 18.273000717163086,-5.116000175476074z" stroke-width="1px" stroke-opacity="1"></path></g></g><g id="6014" transform="matrix(1,0,0,1,255.05809020996094,26.104000091552734)" opacity="1" style="display: block;" fill="rgb(0, 0, 0)" stroke-width="1px" fill-opacity="1" stroke-opacity="1"><g opacity="1" transform="matrix(1,0,0,1,0,0)" fill="rgb(0, 0, 0)" stroke-width="1px" fill-opacity="1" stroke-opacity="1"><path fill="rgb(0,0,0)" fill-opacity="1" d=" M-8.66100025177002,-2.059999942779541 C-2.2139999866485596,-2.7330000400543213 4.8420000076293945,-1.8769999742507935 10.347000122070312,1.7380000352859497 C10.347000122070312,1.7380000352859497 10.35099983215332,1.7380000352859497 10.35099983215332,1.7380000352859497 C10.651000022888184,1.9359999895095825 10.369999885559082,2.421999931335449 10.065999984741211,2.2239999771118164 C8.208000183105469,1.0049999952316284 6.165999889373779,0.10400000214576721 4.034999847412109,-0.5120000243186951 C0.8820000290870667,-1.4279999732971191 -2.4240000247955322,-1.7569999694824219 -5.699999809265137,-1.6820000410079956 C-7.171999931335449,-1.6490000486373901 -8.67300033569336,-1.5670000314712524 -10.125,-1.3009999990463257 C-10.482000350952148,-1.2380000352859497 -10.631999969482422,-1.7799999713897705 -10.274999618530273,-1.843000054359436 C-9.741999626159668,-1.940000057220459 -9.20199966430664,-2.003999948501587 -8.66100025177002,-2.059999942779541z" stroke-width="1px" stroke-opacity="1"></path></g></g><g id="6015" transform="matrix(1,0,0,1,250.05308532714844,40.395999908447266)" opacity="1" style="display: block;" fill="rgb(0, 0, 0)" stroke-width="1px" fill-opacity="1" stroke-opacity="1"><g opacity="1" transform="matrix(1,0,0,1,0,0)" fill="rgb(0, 0, 0)" stroke-width="1px" fill-opacity="1" stroke-opacity="1"><path fill="rgb(0,0,0)" fill-opacity="1" d=" M-6.689000129699707,0.671999990940094 C-2.2639999389648438,-1.3919999599456787 2.821000099182129,-2.2809998989105225 7.6479997634887695,-1.3539999723434448 C7.6479997634887695,-1.3539999723434448 7.65500020980835,-1.350000023841858 7.65500020980835,-1.350000023841858 C8.01200008392334,-1.2790000438690186 7.857999801635742,-0.7409999966621399 7.505000114440918,-0.8080000281333923 C5.820000171661377,-1.1299999952316284 4.10099983215332,-1.2269999980926514 2.385999917984009,-1.1150000095367432 C-0.012000000104308128,-0.9620000123977661 -2.377000093460083,-0.41200000047683716 -4.625,0.421999990940094 C-5.581999778747559,0.7770000100135803 -6.550000190734863,1.1729999780654907 -7.435999870300293,1.680999994277954 C-7.750999927520752,1.8609999418258667 -8.03600025177002,1.375 -7.7210001945495605,1.1950000524520874 C-7.38700008392334,1.0010000467300415 -7.038000106811523,0.8360000252723694 -6.689000129699707,0.671999990940094z" stroke-width="1px" stroke-opacity="1"></path></g></g><g id="6016" transform="matrix(1,0,0,1,117.8660888671875,10.903999328613281)" opacity="1" style="display: block;" fill="rgb(0, 0, 0)" stroke-width="1px" fill-opacity="1" stroke-opacity="1"><g opacity="1" transform="matrix(1,0,0,1,0,0)" fill="rgb(0, 0, 0)" stroke-width="1px" fill-opacity="1" stroke-opacity="1"><path fill="rgb(0,0,0)" fill-opacity="1" d=" M-5.359000205993652,-4.989999771118164 C0.7580000162124634,-3.303999900817871 5.948999881744385,0.6579999923706055 10.133000373840332,5.309000015258789 C10.373000144958496,5.578000068664551 9.979000091552734,5.973999977111816 9.734999656677246,5.704999923706055 C8.447999954223633,4.2729997634887695 7.078000068664551,2.9130001068115234 5.611000061035156,1.6640000343322754 C1.2120000123977661,-2.078000068664551 -4.120999813079834,-4.755000114440918 -9.937999725341797,-5.232999801635742 C-10.29800033569336,-5.263000011444092 -10.29800033569336,-5.823999881744385 -9.937999725341797,-5.794000148773193 C-8.387999534606934,-5.666999816894531 -6.855999946594238,-5.401000022888184 -5.359000205993652,-4.989999771118164z" stroke-width="1px" stroke-opacity="1"></path></g></g><g id="6017" transform="matrix(1,0,0,1,154.29408264160156,19.427000045776367)" opacity="1" style="display: block;" fill="rgb(0, 0, 0)" stroke-width="1px" fill-opacity="1" stroke-opacity="1"><g opacity="1" transform="matrix(1,0,0,1,0,0)" fill="rgb(0, 0, 0)" stroke-width="1px" fill-opacity="1" stroke-opacity="1"><path fill="rgb(0,0,0)" fill-opacity="1" d=" M-4.455999851226807,-10.77299976348877 C-7.01200008392334,-12.84000015258789 -10.022000312805176,-14.272000312805176 -13.133000373840332,-15.300000190734863 C-13.133000373840332,-15.300000190734863 -13.133000373840332,-15.295999526977539 -13.133000373840332,-15.295999526977539 C-13.473999977111816,-15.411999702453613 -13.32800006866455,-15.951000213623047 -12.982999801635742,-15.83899974822998 C-9.5600004196167,-14.710000038146973 -6.28000020980835,-13.097999572753906 -3.5399999618530273,-10.736000061035156 C0.37400001287460327,-7.360000133514404 2.572999954223633,-2.76200008392334 4.622000217437744,1.8660000562667847 C5.665999889373779,4.2170000076293945 6.7129998207092285,6.572000026702881 8.01099967956543,8.79699993133545 C9.432999610900879,11.229999542236328 11.163999557495117,13.461999893188477 13.23900032043457,15.380000114440918 C13.505000114440918,15.62600040435791 13.107999801635742,16.023000717163086 12.840999603271484,15.776000022888184 C10.559000015258789,13.666999816894531 8.694000244140625,11.182000160217285 7.182000160217285,8.479000091552734 C4.738999843597412,4.116000175476074 3.2219998836517334,-0.7099999785423279 0.5839999914169312,-4.9710001945495605 C-0.7749999761581421,-7.1620001792907715 -2.444999933242798,-9.147000312805176 -4.455999851226807,-10.77299976348877z" stroke-width="1px" stroke-opacity="1"></path></g></g><g id="6018" transform="matrix(1,0,0,1,173.174072265625,13.03799819946289)" opacity="1" style="display: block;" fill="rgb(0, 0, 0)" stroke-width="1px" fill-opacity="1" stroke-opacity="1"><g opacity="1" transform="matrix(1,0,0,1,0,0)" fill="rgb(0, 0, 0)" stroke-width="1px" fill-opacity="1" stroke-opacity="1"><path fill="rgb(0,0,0)" fill-opacity="1" d=" M6.573999881744385,6.706999778747559 C3.563999891281128,-1.0010000467300415 -1.621999979019165,-7.961999893188477 -8.835000038146973,-12.220000267028809 C-9.147000312805176,-12.406999588012695 -8.862000465393066,-12.888999938964844 -8.550000190734863,-12.706000328063965 C-6.414999961853027,-11.446000099182129 -4.426000118255615,-9.946999549865723 -2.624000072479248,-8.25 C3.2079999446868896,-2.755000114440918 7.072999954223633,4.672999858856201 8.961000442504883,12.397000312805176 C9.04699993133545,12.748000144958496 8.503000259399414,12.89799976348877 8.416999816894531,12.545999526977539 C7.933000087738037,10.560999870300293 7.316999912261963,8.609999656677246 6.573999881744385,6.706999778747559z" stroke-width="1px" stroke-opacity="1"></path></g></g></g></svg>