<svg xmlns="http://www.w3.org/2000/svg" fill="none" viewBox="0 0 75 77" height="77" width="75"><path stroke-linejoin="round" stroke-linecap="round" stroke-width="1.548" stroke="#2D2926" fill="#009E50" d="M37 73.565c19.882 0 36-16.09 36-35.937C73 17.78 56.882 1.69 37 1.69S1 17.78 1 37.628c0 19.847 16.118 35.937 36 35.937"></path><path fill="#FB66E5" d="M19.018 27.394c-.344-.121-.87-.142-1.233-.162-1.415-.04-2.85-.202-4.265.02-1.152.182-2.324.808-2.526 2.079 0 .12 0 .343.162.343.06 0 .1-.02.161-.04.485-.223.99-.445 1.536-.384.647.08 1.213.504 1.739.827.485.303 1.01.585 1.556.807s1.071.363 1.576.606c.182.08.364.201.566.222.142 0 .223-.02.304.04"></path><path stroke-linejoin="round" stroke-linecap="round" stroke-width="1.353" stroke="#2D2926" d="M19.018 27.394c-.344-.121-.87-.142-1.233-.162-1.415-.04-2.85-.202-4.265.02-1.152.182-2.324.808-2.526 2.079 0 .12 0 .343.162.343.06 0 .1-.02.161-.04.485-.223.99-.445 1.536-.384.647.08 1.213.504 1.739.827.485.303 1.01.585 1.556.807s1.071.363 1.576.606c.182.08.364.201.566.222.142 0 .223-.02.304.04"></path><path stroke-linejoin="round" stroke-linecap="round" stroke-width="1.353" stroke="#2D2926" fill="#00C2B9" d="M16.166 27.959a4.55 4.55 0 0 1 6.023-2.34c2.325 1.008 9.662 4.56 8.651 6.88-1.01 2.32-10.005 2.501-12.329 1.493a4.536 4.536 0 0 1-2.345-6.013zm36.948 13.519c.505-1.231 1.091-2.401 1.637-3.612.95-2.099 1.738-4.338 2.203-6.578 0-.08.02-.141.04-.222l7.358.686c.788 1.07-1.456 11.743-9.6 20.379 0 0-2.75-2.34-5.943-5.044a9.5 9.5 0 0 0 2.567-2.502c.667-.989 1.293-1.998 1.738-3.107M34.36 12.645c.363-2.22 19.605-4.52 36.441 3.732l-2.061 4.964s-22.274-5.529-28.216-2.764l.707 11.036-4.062-.968s-3.78-10.19-2.81-16m-9.175 36.298c.869-3.249 10.166-12.43 10.166-12.43l3.699 2.523c0 .282-7.296 10.088-7.296 10.088s14.552 14.992 17.806 19.088c0 0-.95 2.723-2.304 4.56 0 0-22.96-20.601-22.092-23.85z"></path><path stroke-linejoin="round" stroke-linecap="round" stroke-width="1.5" stroke="#2D2926" fill="#fff" d="M19.949 25.316c3.112-.222 8.367-.424 8.367-.424s-7.235-8.131-4.285-15.698C26.982 1.648 32.36-.349 42.95 1.83c10.57 2.199 29.772 9.685 29.772 9.685l-1.9 4.862c-18.312-6.88-35.997-5.932-36.442-3.732-1.051 5.084 2.81 16 2.81 16l4.062.968 15.765 1.453s-.02.141-.04.222c-.465 2.26-1.253 4.48-2.203 6.578-.546 1.21-1.132 2.38-1.637 3.611-.465 1.11-1.072 2.119-1.739 3.108-.667.968-1.556 1.816-2.567 2.502-4.446-3.753-9.762-8.212-9.762-8.051l-3.699-2.522s-9.297 9.18-10.186 12.429c-.87 3.248 22.091 23.849 22.091 23.849-.465.625-2.061 2.885-2.567 3.208 0 0-26.437-11.582-28.458-23.768s10.935-16.465 10.935-16.465c-2.73-.1-5.68-.504-8.247-1.453a5.1 5.1 0 0 1-2.486-2.138c.869 1.291 2.769 1.513 3.88 1.574 1.112.06 2.002-.222 3.113-.364 1.172-.14 4.871-1.29 6.023-1.513-2-1.755-4.951-4.015-6.629-4.842-.627-.303-1.738-.807-2.405-.949-.647-.14-2.143-.585-3.234.424.849-.888 2.142-1.13 2.749-1.19"></path><path fill="#2D2926" d="M20.372 30.844a1.05 1.05 0 1 0 .002-2.1 1.05 1.05 0 0 0-.002 2.1"></path></svg>