<svg xmlns="http://www.w3.org/2000/svg" viewBox="0 0 1763.507 1751.564"><g stroke="#000" stroke-miterlimit="10"><path fill="#1482cd" d="m1711.142 758.231-88.876-38.609c-26.134-11.353-38.988-41.025-29.395-67.855l26.547-74.247c10.062-28.143-4.595-59.114-32.737-69.176l-.628-.225a54.12 54.12 0 0 1-32.722-32.694l-66.461-185.383c-10.311-28.76-42.369-43.288-70.792-32.081a94.67 94.67 0 0 1-89.398-10.781l-177.267-125.379a302.28 302.28 0 0 0-188.182-55.183l-11.649.526a54.1 54.1 0 0 1-29.101-6.968l-24.632-13.945c-65.108-36.859-146.684-26.657-200.71 25.1a111.48 111.48 0 0 1-100.395 28.523 266.77 266.77 0 0 0-189.08 29.861l-40.585 23.432c-37.331 21.553-50.122 69.288-28.568 106.619 20.829 36.078-5.207 81.175-46.866 81.175h-37.349c-29.888 0-54.116 24.229-54.116 54.116v145.79a54.12 54.12 0 0 1-21.042 42.833l-59.791 46.169a54.12 54.12 0 0 0-20.925 46.383l7.988 121.493a54.1 54.1 0 0 1-7.241 30.793L35.086 935.075c-11.362 19.501-9.428 44.005 4.852 61.483l18.472 22.608a360.46 360.46 0 0 1 77.893 178.458l5.108 36.762c13.059 93.987 70.766 175.855 154.896 219.746l30.181 15.746a54.1 54.1 0 0 1 25.313 28.129l14.12 35.811c8.558 21.705 30.064 35.482 53.36 34.182l39.648-2.213a54.12 54.12 0 0 1 47.293 22.918l29.675 42.229a54.12 54.12 0 0 0 39.908 22.826 587.9 587.9 0 0 1 186.77 46.761l68.735 29.859c47.362 20.575 101.106-10.613 106.743-61.942 3.92-35.699 40.889-57.747 74.161-44.23l23.636 9.602a54.11 54.11 0 0 0 47.426-3.271l34.135-19.708c25.883-14.944 58.98-6.076 73.924 19.808s48.041 34.752 73.924 19.808l112.222-64.791c22.101-12.76 32.284-39.227 24.435-63.51l-11.757-36.374c-11.297-34.95 14.763-70.761 51.493-70.761h11.652c33.897 0 61.375-27.479 61.375-61.375a54.12 54.12 0 0 1 12.339-34.398l117.334-142.508a264.78 264.78 0 0 0 58.235-201.849l-4.149-32.476a54.1 54.1 0 0 1 4.045-28.42l36.734-84.561c11.908-27.413-.66-59.289-28.073-71.197Z"/><path fill="#2d46c8" d="M1629.956 916.725c-53.824 7.034-57.853-31.025-35.696-42.261 26.316-13.346 44.177 3.505 69.281-10.461 19.421-10.805 11.413-37.66 27.962-45.319 15.82-7.321 31.318 19.223-4.513 64.008-14.059 17.571-41.5 32.004-57.032 34.033ZM487.55 337.765c-19.021-19.948-39.72-14.342-50.983-27.939-14.954-18.053-38.104-15.05-50.834-36.761-10.721-18.284 8.079-28.861 20.28-6.944 12.798 22.989 23.62 2.318 45.351 18.846 21.012 15.981 32.276 7.486 49.564 15.123 16.079 7.103 12.942 15.896 32.226 22.176 28.545 9.296 45.592 22.285 54.567 35.255 24.505 35.412-11.168 70.675-37.284 30.196-20.07-31.109-41.589-27.617-62.887-49.953Zm120.021 278.999c11.64-13.909 3.908-35.964-21.702-41.431-25.735-5.494-19.73-30.383-4.242-50.408 26.064-33.701 4.521-68.968-26.141-80.791-36.932-14.24-17.362-63.528-87.992-84.836-99.966-30.157-100.555-49.724-130.013-97.778h-.001c19.016 35.768-6.848 79.424-47.835 79.424h-37.349c-29.888 0-54.116 24.229-54.116 54.116v145.79a54.12 54.12 0 0 1-21.042 42.833l-56.792 43.853c24.68-19.057 55.649-17.824 79.521-2.879 49.526 31.005 17.559 69.102 66.573 89.312 12.85 5.299 42.529 2.331 51.605-17.448 16.515-35.992 63.528-26.289 75.783 2.527 25.626 60.256 98.103 20.097 53.345-34.144-28.118-34.076 26.236-62.999 52.1-11.068 12.627 25.352 53.062 27.806 59.173-8.859 4.735-28.41 33.382-9.401 49.125-28.213Zm1090.864 325.645a54.1 54.1 0 0 1 4.045-28.42l5.198-11.966c-14.271 26.001-42.513 40.778-65.633 48.462-27.52 9.146-76.52 22.342-80.96 81.826s23.234 144.82-13.317 171.349c-36.696 26.635-71.913-20.42-60.343-55.288 19.066-57.457-11.268-67.138 16.203-130.46 17.505-40.349-23.927-58.105-41.016-11.186-17.256 47.376-50.681 5.857-71.989 75.698-10.797 35.391-28.077 33.659-36.598 62.345-11.837 39.853 9.251 53.274-15.598 98.58-32.986 60.142 24.131 77.01 1.147 130.525-42.686 99.391 50.579 111.902 60.866 143.727l-10.287-31.825c-11.297-34.95 14.763-70.761 51.493-70.761h11.652c33.897 0 61.375-27.479 61.375-61.375 0-1.24.055-2.475.139-3.705l-.011-.003c0-44.813 2.981-61.83 15.558-73.074 22.842-20.423 43.889-14.987 71.005-47.921l42.982-52.203a264.78 264.78 0 0 0 58.235-201.849l-4.149-32.476Zm-296.98 578.324h.001l-.002-.005zm309.687-762.502-88.876-38.609c-26.134-11.353-38.988-41.025-29.395-67.854l26.546-74.247c7.725-21.606.869-44.868-15.462-59.067-15.261-11.751-18.374-.421-23.091 29.849-4.735 30.383-37.092 36.696-38.275 1.184-1.125-33.745 14.549-60.169 5.375-89.029l-46.248-129.002c18.527 63.686 4.275 117.955-15.7 146.266-18.485 26.198-30.036 41.956-22.344 66.636 9.47 30.383 24.859 33.145 26.832 71.223 1.137 21.934-16.576 47.271-25.54 76.347-8.395 27.231 17.648 69.847 76.046 48.934 48.951-17.53 114.324-2.588 171.851 18.169-.57-.271-1.137-.546-1.72-.799Zm-508.389-212.988c-6.074-37.046-20.716-88.138-100.027-124.243-76.925-35.018-58.601-90.49-107.229-118.277-46.956-26.832-79.213 13.416-194.037-61.161S685.451 65.182 754.443 34.447a169.1 169.1 0 0 0-59.304 36.885 111.45 111.45 0 0 1-60.371 29.707c-44.766 15.733-63.299 106.194 77.615 180.771 83.76 44.329 76.237 74.039 188.217 79.016 84.342 3.749 94.28 81.75 158.031 111.865 36.76 17.364 84.343 25.845 96.378 88.683 20.021 104.535 94.503 80.397 135.342 138.401 21.808 30.973 70.031 14.19 31.961-34.329-30.186-38.472-107.13-44.391-119.559-120.203ZM847.331 66.367c-2.058 41.157 46.058 44.203 64.515 92.333 22.886 59.681 75.366 35.198 154.677 87.302 52.751 34.655 26.831 70.631 98.646 102.395 35.61 15.751 65.896 19.137 73.393 56.82 5.62 28.248 31.697 24.267 28.805-5.327-5.879-60.145-90.36-51.493-117.586-128.438-27.227-76.944-91.15-86.414-152.705-118.376-61.493-31.929-58.933-86.518-17.849-86.727a302 302 0 0 0-17.997.269l-11.649.526a54.1 54.1 0 0 1-29.101-6.968l-24.633-13.945c-17.828-10.093-47.334-3.54-48.517 20.135Zm459.684 466.202c-5.449-8.969-8.032-14.353-23.717-24.711-30.557-20.179-8.888-37.184 3.944-49.258 18.992-17.871 15.791-34.526 14.651-57.329-2.664-53.276 52.775-38.375 37.192 7.176s-27.33 55.942-11.149 72.432c10.737 10.942-2.48 21.625 12.627 31.961 29.988 20.518-10.654 57.412-33.547 19.729Zm-212.961 1009.399c10.892-2.558 38.307-4.657 41.916-24.368 5.13-28.016 42.606-22.529 37.88 7.401-4.735 29.988 29.461 41.311 52.95 47.693 54.877 14.911 29.544 68.516-11.473 37.665-41.016-30.851-51.515-48.873-73.576-37.924-14.639 7.265-21.098-9.662-36.568 2.233-30.709 23.612-56.889-21.952-11.129-32.699Z"/><path fill="#2d46c8" d="M1070.173 608.922c3.52 57.496 30.189 79.184 72.209 89.965 68.364 17.54 112.307 42.623 117.168 93.525 4.861 50.901 16.756 70.256 65.13 88.102 58.3 21.509 19.113 107.505-44.095 76.136-42.414-21.05-77.757-10.297-95.884 47.35-10.95 34.822-15.858 54.058-51.493 54.058-33.984 0-32.208-51.888-89.374-44.391-25.109 3.293-51.22-10.73-54.108-51.888-3.254-46.391-47.836-29.807-55.045-68.066-7.694-40.84-67.608-41.136-80.495 16.573-8.541 38.247-68.114 43.547-77.585-13.712s10.95-87.598-28.114-134.948-14.205-93.517 18.644-105.354c47.275-17.036 69.66-46.805 64.811-83.455-4.116-31.111 19.996-50.52-5.524-77.931-21.308-22.886-1.578-63.528 36.696-47.35 30.536 12.907 42.652-12.716 67.671-18.25 30.778-6.807 43.382 21.326 24.859 41.136-17.715 18.945 2.959 34.625-5.623 53.861-11.327 25.389 13.021 42.911 36.4 28.114 24.07-15.234 80.199-1.48 83.751 56.524Zm-95.243 939.704c-42.615-54.453-71.618-83.751-197.096-102.691s-78.719-73.985-175.64-128.623c-57.719-32.539-26.683-60.087-104.91-97.035-84.073-39.71-109.323-112.895-133.468-183.921s-69.911-35.876-90.317-121.28c-15.981-66.882-64.656-58.292-75.361-111.445-17.164-85.219-99.69-96.563-95.467-32.33l1.737 26.427a54.1 54.1 0 0 1-7.241 30.793c10.76-15.894 45.174-10.512 67.322 5.958 32.839 24.42 60.91 72.967 65.858 111.32 9.635 74.674 60.964 62.739 89.373 128.438s30.015 117.848 112.556 165.233c95.884 55.045 50.901 95.884 105.354 124.886 32.309 17.208 46.66 24.168 75.227 89.867 28.567 65.698 73.203 37.678 141.005 73.097 59.484 31.074 55.195 86.516 115.416 99.435 44.194 9.481 67.474 23.083 63.414 62.715a77 77 0 0 0 5.356-21.029c3.92-35.699 40.889-57.747 74.161-44.23l23.636 9.602a54.11 54.11 0 0 0 47.426-3.271l10.781-6.224c-37.843 19.264-76.509-21.24-119.124-75.692Zm-467.781-48.336c6.301-40.329-12.528-68.658-55.143-69.842s-49.125-49.401-28.41-69.447c36.696-35.513 4.784-103.579-41.925-87.598-44.59 15.256-44.489 61.555-30.284 99.435s-8.179 99.418-81.821 65.493a294 294 0 0 0 26.739 15.802l30.182 15.746a54.1 54.1 0 0 1 25.313 28.129l14.12 35.811c8.558 21.705 30.064 35.482 53.359 34.182l39.647-2.213a54.12 54.12 0 0 1 47.293 22.918l29.674 42.229c6.768-47.784-37.129-76.983-28.744-130.647ZM246.92 1241.935c27.791-6.594 9.064-43.839 20.98-71.365 13.349-30.833 8.102-61.59-26.11-80.55-65.501-36.302-66.882-64.317-99.436-68.658-29.001-3.867-54.453 21.308-83.947-2.193a360.46 360.46 0 0 1 77.893 178.458l5.108 36.762a293.2 293.2 0 0 0 35.419 104.391c-18.688-35.683-6.851-51.862-6.061-75.931 1.474-44.948-14.963-49.048 2.367-79.914 16.671-29.693 6.313-50.299 25.254-57.007 16.821-5.957 47.052 15.956 22.886 67.869-10.654 22.886 2.368 53.664 25.648 48.139Z"/><path fill="#2d46c8" d="M167.728 1001.859c-22.759-16.769-31.182-23.121-25.619-36.775s4.657-20.849-2.517-29.472c-15.986-19.217 5.607-34.952 21.284-19.276 15.677 15.677 6.168 54.058 22.623 70.604 10.328 10.385 1.044 27.308-15.771 14.918Zm144.434 407.065c-10.938.808-15.374-12.384-11.086-24.346 5.623-15.685-3.497-21.477-5.179-36.253-2.072-18.2 16.869-20.272 20.716-4.587s2.072 18.348 8.286 34.033c6.215 15.685-.932 30.281-12.737 31.153Zm232.015-468.511c10.979-3.995 19.347 8.244 18.414 21.75-1.223 17.708 9.803 21.005 15.805 35.666 7.393 18.059-11.424 25.666-19.909 10.7s-7.436-18.21-18.348-32.491-7.811-31.313 4.039-35.625Z"/><path fill="#2d46c8" d="M635.932 814.895c38.472-5.919 55.045 30.186 47.942 59.78-14.54 60.582-28.408 181.565 84.934 207.749 89.669 20.716 93.517-35.513 151.817-30.186 61.163 5.588 79.212 105.648 128.733 84.342 50.901-21.899 91.149-8.878 85.23 46.758s37.102 68.175 73.097 31.961c32.455-32.652 77.043-38.176 83.408 1.282 4.156 25.762-25.714 38.665-37.552 66.483-14.549 34.189 12.74 56.233 1.79 84.347-14.736 37.835-77.431 19.929-58.004-16.277 13.021-24.267-7.99-43.207-30.186-32.257-19.932 9.833-17.374 53.64-47.855 45.946-18.607-4.697-18.934-23.249-21.394-39.731-2.959-19.828-24.267-35.513-46.758-24.859-20.151 9.545-27.281 34.899-26.339 81.087 1.184 58.004-108.313 47.942-65.106-36.105 29.656-57.687-17.757-60.963-7.695-104.762 9.662-42.057-28.41-66.29-56.228-53.269-51.751 24.224-58.23-23.341-99.12-35.513-45.088-13.421-99.116-8.952-144.142-57.23-68.066-72.983-24.034-159.155-56.894-195.501-23.01-25.451-45.481 8.319-75.075-33.113-27.621-38.67-76.372 10.622-98.271-18.38-28.429-37.648-35.934-29.633-64.515-47.942-37.88-24.267-.105-71.555 40.248-37.288 52.974 44.983 84.158 39.983 104.763 18.348 23.675-24.859 59.188-24.267 74.577 4.143s31.629 34.334 58.596 30.186Z"/><path fill="#2d46c8" d="M480.415 973.455c-12.938-24.14 7.024-30.526-6.735-48.8-13.7-18.196-3.609-42.444 16.254-40.886 21.372 1.677 25.089 27.609 17.765 49.841-12.481 37.888 14.889 47.181 17.622 71.021 3.513 30.651-28.49 39.115-38.304 23.182-9.424-15.3 7.401-28.229-6.602-54.357Zm781.351 541.741c26.364 4.958 18.974 24.109 41.367 24.837 22.297.725 34.598 23.318 21.208 37.514-14.407 15.275-36.474 2.182-48.936-17.061-21.239-32.794-44.572-18.569-65.007-30.18-28.953-16.452-12.342-45.761 5.842-43.461 17.461 2.208 16.99 22.986 45.525 28.351Zm168.093-1216.139c-22.959-14.12-23.221-38.27-4.832-43.752a54.4 54.4 0 0 0-8.949 2.657c-27.493 10.841-58.325 8.168-83.436-6.903 39.091 26.076 62.386 53.87 72.028 84.265 9.075 28.607 11.652 70.773-7.091 114.769-17.43 40.915 24.563 52.382 39.952 17.469s3.823-71.968 13.738-106.341c9.732-33.737-.399-49.241-21.411-62.164Zm-832.571 826.057c21.914 41.87 45.189 80.555 107.928 86.439s86.379 10.258 105.516 46.757c17.252 32.903 41.362 26.058 68.461 16.178 37.88-13.81 43.813 36.696 6.525 35.513-16.437-.522-24.182 21.505-4.65 31.271 31.489 15.744 3.425 59-26.339 22.787-23.675-28.805-51.691-.789-52.874-40.248-1.335-44.489-32.467-49.396-54.058-48.731-38.472 1.184-39.064-32.347-89.965-34.715s-59.385-32.562-68.855-58.605-43.799-29.199-43.799-55.242c0-22.886 34.607-34.848 52.111-1.404Z"/><path fill="#2d46c8" d="M772.458 1371.655c-7.54-5.308-20.176-7.794-29.693-4.538-9.677 3.311-20.861-5.66-15.981-15.981 6.017-12.725-2.274-21.684-14.705-27.687-26.825-12.955 4.347-46.297 22.628-15.932 10.819 17.971 15 41.674 38.934 43.619 24.267 1.973 34.583 15.216 30.975 23.281-6.708 14.994-23.761 3.15-32.159-2.762Zm-82.547-810.722c1.31-16.703-6.515-38.756-20.423-50.613-14.142-12.057-10.486-37.85 10.168-39.786 25.465-2.387 31.784-23.648 29.647-48.64-4.61-53.931 76.389-36.108 45.87 20.603-18.062 33.562-51.234 62.061-32.097 101.272 19.404 39.757 8.264 68.152-7.683 69.986-29.651 3.41-26.942-34.218-25.483-52.822Zm741.603 311.621c10.457-25.451.292-39.899-29.988-50.112-33.342-11.246-11.838-45.575 10.851-30.975 19.1 12.29 30.827 14.254 45.18 3.749 25.396-18.589 43.454 7.349 30.778 22.213-19.242 22.564-8.236 45.669 4.389 51.427 26.93 12.281 15.241 44.391-5.771 44.687-23.362.329-14.468 29.237-22.047 42.911-12.579 22.693-47.794 13.317-40.248-14.649 7.159-26.531-4.003-42.82 6.856-69.25Zm-674.445 740.439c-16.178-7.3-31.379-3.505-52.677-14.797-29.397-15.586-46.265 10.358-33.737 24.07 13.583 14.867 34.933 3.049 60.076 21.308 25.901 18.81 16.573 48.238-7.665 41.458l-.003-.001a588 588 0 0 1 39.509 15.493l68.735 29.859c-61.953-26.913-17.05-91.586-74.237-117.39Zm-113.418-5.874c16.388-7.513 10.916-29.31-2.346-33.855-10.949-3.752-21.506 2.315-23.383 13.493-1.877 11.177 9.541 27.784 25.729 20.363Zm439.581-88.504c16.781 10.302 35.291-8.181 32.252-23.094-2.509-12.312-14.538-18.189-26.695-12.983s-22.133 25.901-5.556 36.077Zm148.265-356.882c16.781 10.302 35.291-8.181 32.252-23.094-2.509-12.312-14.538-18.189-26.695-12.983s-22.133 25.901-5.556 36.077Zm-607.948-718.31c19.63 1.547 27.714-23.331 18.227-35.232-7.832-9.825-21.218-9.591-29.68.572s-7.939 33.131 11.453 34.66Zm664.52 676.824c8.386-8.634-.167-22.144-9.469-22.322-7.679-.147-12.791 6.243-11.309 14.19s12.494 16.661 20.778 8.132Zm-984.895 196.768c12.023.578 16.496-14.774 10.477-21.867-4.969-5.856-13.143-5.463-18.123.905s-4.23 20.391 7.646 20.962ZM117.273 966.472c12.023.578 16.496-14.774 10.477-21.867-4.969-5.856-13.143-5.463-18.123.905s-4.23 20.391 7.646 20.962Zm1164.609-607.176c8.495 10.538 22.399 2.376 22.843-8.182.366-8.716-5.953-15.27-14.032-14.506s-17.203 12.278-8.811 22.688ZM439.767 948.565c8.495 10.538 22.399 2.376 22.843-8.182.366-8.716-5.953-15.27-14.032-14.506s-17.203 12.278-8.811 22.688Zm916.316-362.088c8.436 10.325 22.36 2.234 22.851-8.151.405-8.573-5.875-14.99-13.947-14.202s-17.237 12.154-8.904 22.353Z"/></g></svg>