<svg class="svg-graphic svg-graphic--sunflower-side" xmlns="http://www.w3.org/2000/svg" viewBox="0 0 76 73" fill="none">
			<path fill="#7D4EE1" stroke="#2D2926" stroke-linecap="round" stroke-linejoin="round" stroke-width="2px" d="M20.402 72.753H9.818l22.797-38.906 7.867 4.623-20.08 34.283Z" fill-opacity="1" stroke-opacity="1"></path><path fill="#FFC907" d="M44.875 36.878c1.37-6.417-4.984-7.478-5.126-13.87-.213-8.918-3.047-15.916-8.363-19.1-1.677-1.01-3.496-1.844-5.48-2.02-1.985-.152-4.135.48-5.552 1.995-2.22 2.426-1.914 6.19-.732 9.095 2.22 5.432 7.158 9.5 12.874 10.611" stroke-width="1px" fill-opacity="1" stroke-opacity="1"></path><path stroke="#2D2926" stroke-linecap="round" stroke-linejoin="round" stroke-width="2px" d="M44.875 36.878c1.37-6.417-4.984-7.478-5.126-13.87-.213-8.918-3.047-15.916-8.363-19.1-1.677-1.01-3.496-1.844-5.48-2.02-1.985-.152-4.135.48-5.552 1.995-2.22 2.426-1.914 6.19-.732 9.095 2.22 5.432 7.158 9.5 12.874 10.611" fill-opacity="1" stroke-opacity="1"></path><path fill="#FFC907" d="M37.717 28.465c-1.488-6.392-4.843-12.101-9.45-16.143-4.606-4.042-10.465-6.417-16.56-6.695-1.913-.076-3.898.05-5.74.859-1.843.808-3.497 2.425-4.087 4.471-.945 3.234.921 6.468 3.213 8.464 4.3 3.764 10.418 5.002 15.97 3.208" stroke-width="1px" fill-opacity="1" stroke-opacity="1"></path><path stroke="#2D2926" stroke-linecap="round" stroke-linejoin="round" stroke-width="2px" d="M37.717 28.465c-1.488-6.392-4.843-12.101-9.45-16.143-4.606-4.042-10.465-6.417-16.56-6.695-1.913-.076-3.898.05-5.74.859-1.843.808-3.497 2.425-4.087 4.471-.945 3.234.921 6.468 3.213 8.464 4.3 3.764 10.418 5.002 15.97 3.208" fill-opacity="1" stroke-opacity="1"></path><path fill="#FFC907" d="M32.898 28.692c4.867-4.042 8.434 1.693 13.915-.833 7.654-3.537 14.788-3.714 19.726.1 1.559 1.213 3.047 2.628 3.992 4.473.945 1.844 1.347 4.219.614 6.214-1.134 3.158-4.465 4.472-7.418 4.523-5.551.126-11.055-2.956-14.41-8.034" stroke-width="1px" fill-opacity="1" stroke-opacity="1"></path><path stroke="#2D2926" stroke-linecap="round" stroke-linejoin="round" stroke-width="2px" d="M32.898 28.692c4.867-4.042 8.434 1.693 13.915-.833 7.654-3.537 14.788-3.714 19.726.1 1.559 1.213 3.047 2.628 3.992 4.473.945 1.844 1.347 4.219.614 6.214-1.134 3.158-4.465 4.472-7.418 4.523-5.551.126-11.055-2.956-14.41-8.034" fill-opacity="1" stroke-opacity="1"></path><path fill="#FFC907" d="M43.033 32.079c6.048-1.238 12.308-.38 17.67 2.4 5.387 2.779 9.852 7.478 12.616 13.263.874 1.82 1.606 3.815 1.677 5.937.071 2.122-.59 4.396-2.079 5.861-2.338 2.274-5.859 1.82-8.528.43-5.008-2.577-8.599-8.009-9.426-14.148" stroke-width="1px" fill-opacity="1" stroke-opacity="1"></path><path stroke="#2D2926" stroke-linecap="round" stroke-linejoin="round" stroke-width="2px" d="M43.033 32.079c6.048-1.238 12.308-.38 17.67 2.4 5.387 2.779 9.852 7.478 12.616 13.263.874 1.82 1.606 3.815 1.677 5.937.071 2.122-.59 4.396-2.079 5.861-2.338 2.274-5.859 1.82-8.528.43-5.008-2.577-8.599-8.009-9.426-14.148" fill-opacity="1" stroke-opacity="1"></path><path fill="#E08700" d="m56.096 32.155-9.284 7.377-10.867-.986-5.15-9.196 2.008-12.707" stroke-width="1px" fill-opacity="1" stroke-opacity="1"></path><path stroke="#2D2926" stroke-linecap="round" stroke-linejoin="round" stroke-width="2px" d="m56.096 32.155-9.284 7.377-10.867-.986-5.15-9.196 2.008-12.707" fill-opacity="1" stroke-opacity="1"></path><path fill="#FFC907" d="M42.418 35.742c2.291-1.49 5.22-1.566 7.749-.632 2.527.935 4.7 2.754 6.543 4.826 3.544 4.017 5.977 9.145 6.922 14.577.425 2.425.543 4.977-.189 7.326-.732 2.35-2.457 4.447-4.701 5.003-2.717.682-5.552-.96-7.3-3.285-3.496-4.674-3.33-11.293-2.976-17.28" stroke-width="1px" fill-opacity="1" stroke-opacity="1"></path><path stroke="#2D2926" stroke-linecap="round" stroke-linejoin="round" stroke-width="2px" d="M42.418 35.742c2.291-1.49 5.22-1.566 7.749-.632 2.527.935 4.7 2.754 6.543 4.826 3.544 4.017 5.977 9.145 6.922 14.577.425 2.425.543 4.977-.189 7.326-.732 2.35-2.457 4.447-4.701 5.003-2.717.682-5.552-.96-7.3-3.285-3.496-4.674-3.33-11.293-2.976-17.28" fill-opacity="1" stroke-opacity="1"></path><path fill="#FFC907" d="M38.663 33.519c4.017-.152 7.82 2.577 9.923 6.24 2.102 3.663 2.716 8.11 2.55 12.404-.117 3.588-.991 7.529-3.803 9.474-2.834 1.97-6.874 1.061-9.26-1.49-2.386-2.552-3.331-6.341-3.236-9.954.094-3.613 1.086-7.125 2.078-10.586" stroke-width="1px" fill-opacity="1" stroke-opacity="1"></path><path stroke="#2D2926" stroke-linecap="round" stroke-linejoin="round" stroke-width="2px" d="M38.663 33.519c4.017-.152 7.82 2.577 9.923 6.24 2.102 3.663 2.716 8.11 2.55 12.404-.117 3.588-.991 7.529-3.803 9.474-2.834 1.97-6.874 1.061-9.26-1.49-2.386-2.552-3.331-6.341-3.236-9.954.094-3.613 1.086-7.125 2.078-10.586" fill-opacity="1" stroke-opacity="1"></path><path fill="#E08700" stroke="#2D2926" stroke-linecap="round" stroke-linejoin="round" stroke-width="2px" d="m42.089 28.466 3.047-.38 1.252 2.73 3.19-.86 1.488 2.249 3.118-1.49 1.914 1.44 1.394-3.184 3.165.025-1.394-3.057 2.056-2.728-2.08-1.213-.094-3.638-2.551-.43-.709-3.46-2.835.025-1.016-3.107-3.07.378-1.23-2.728-3.212.859-1.488-2.249-3.095 1.491-1.937-1.44-1.37 3.183-3.19-.025 1.418 3.057-2.055 2.728 2.055 1.213.118 3.638 2.551.43.685 3.46 2.859-.025 1.016 3.108Z" fill-opacity="1" stroke-opacity="1"></path><path fill="#FFC907" d="M34.883 30.588c.307-2.855-.874-5.735-2.717-7.807-1.843-2.071-4.3-3.41-6.85-4.32a25.872 25.872 0 0 0-15.285-.606c-2.245.606-4.465 1.566-6.143 3.259-1.677 1.693-2.74 4.244-2.268 6.67.544 2.93 3.142 4.977 5.86 5.71 5.456 1.44 10.984-1.517 15.898-4.371" stroke-width="1px" fill-opacity="1" stroke-opacity="1"></path><path stroke="#2D2926" stroke-linecap="round" stroke-linejoin="round" stroke-width="2px" d="M34.883 30.588c.307-2.855-.874-5.735-2.717-7.807-1.843-2.071-4.3-3.41-6.85-4.32a25.872 25.872 0 0 0-15.285-.606c-2.245.606-4.465 1.566-6.143 3.259-1.677 1.693-2.74 4.244-2.268 6.67.544 2.93 3.142 4.977 5.86 5.71 5.456 1.44 10.984-1.517 15.898-4.371" fill-opacity="1" stroke-opacity="1"></path><path fill="#FFC907" d="M38.332 33.316c-1.56-3.967-5.457-6.493-9.45-6.998-3.992-.506-8.032.758-11.599 2.728-2.977 1.617-5.977 4.118-6.45 7.68-.472 3.588 1.985 7.125 5.15 8.363 3.166 1.263 6.78.58 9.805-1.036 3.023-1.592 5.575-4.042 8.103-6.468" stroke-width="1px" fill-opacity="1" stroke-opacity="1"></path><path stroke="#2D2926" stroke-linecap="round" stroke-linejoin="round" stroke-width="2px" d="M38.332 33.316c-1.56-3.967-5.457-6.493-9.45-6.998-3.992-.506-8.032.758-11.599 2.728-2.977 1.617-5.977 4.118-6.45 7.68-.472 3.588 1.985 7.125 5.15 8.363 3.166 1.263 6.78.58 9.805-1.036 3.023-1.592 5.575-4.042 8.103-6.468" fill-opacity="1" stroke-opacity="1"></path><path fill="#FFC907" stroke="#2D2926" stroke-linecap="round" stroke-linejoin="round" stroke-width="2px" d="M38.584 46.94c3.62-5.567 3.862-12.082.54-14.552-3.32-2.469-8.946.043-12.566 5.61-3.62 5.568-3.862 12.083-.541 14.552 3.32 2.47 8.947-.042 12.567-5.61Z" fill-opacity="1" stroke-opacity="1"></path>
		</svg>