<svg xmlns="http://www.w3.org/2000/svg" viewBox="0 0 12610 2160"><path fill="#aa73f5" stroke="#000" stroke-linejoin="bevel" d="M11699.423 0c133.538 203.859 232.375 423.902 294.273 654.11 35.089-210.347 37.587-423.391 9.663-634.559 70.785 234.086 104.101 475.581 97.662 718.222 95.063-125.764 175.963-259.252 243.382-398.823-30.659 195.291-85.658 386.35-166.238 569.702q181.757-.526 363.505 1.172c-110.745 78.089-226.573 149.702-347.52 214.258 105.409 130.311 195.589 269.543 271.191 415.766-103.354-77.526-211.203-149.74-323.553-216.261 41.778 222.843 48.975 449.198 23.472 673.991-17.358-185.299-57.608-367.787-122.315-544.358-34.264 244.522-109.054 482.339-221.693 706.78 73.247-219.007 111.576-445.733 112.322-674.575-88.92 201.861-208.095 391.01-355.847 562.422 122.466-195.512 211.617-405.783 265.329-625.149-114.018 123.829-242.601 235.286-385.629 331.485 132.327-141.36 241.627-298.079 327.523-466.141-121.898 34.321-245.615 62.298-371.095 83.623 125.889-74.917 241.633-161.824 347.441-258.81-113.449-57.714-230.762-108.396-351.886-151.532a29544 29544 0 0 0 361.559-31.542c-94.517-135.275-205.796-259.61-334.109-369.889 133.425 59.005 259.205 130.038 377.29 211.447-69.054-198.039-168.224-385.695-296.338-558.079 146.396 136.755 270.959 290.317 372.98 456.73-26.288-230.984-90.907-456.306-191.368-669.992Z"/><g stroke="#000" stroke-linejoin="bevel"><path fill="#fac30a" d="M10895.539 0c-416.347 0-1191.792 156.056-1868.355 156.056 218.021 0 446.309 16.207 669.541 38.174-657.461 54.464-1494.183 147.961-2252.379 147.961 464.194 0 957.819 35.048 1421.727 74.726-1073.523 60.041-2409.742 154.849-3624.626 154.849 917.281 0 1903.733 54.048 2794.058 106.371C5770.815 807.233 2733.041 1080 .155 1080c2732.886 0 5770.66 272.767 8035.348 401.863-890.324 52.323-1876.776 106.371-2794.057 106.371 1214.884 0 2551.104 94.808 3624.626 154.849-463.907 39.678-957.533 74.726-1421.727 74.726 758.197 0 1594.918 93.497 2252.38 147.961-223.232 21.967-451.52 38.174-669.541 38.174 676.563 0 1452.009 156.056 1868.355 156.056 596.467 0 1080-483.532 1080-1080s-483.532-1080-1080-1080Z"/><path fill="#f00500" d="M10895.739 62.424h-.199c-249.856.05-714.983 93.634-1120.813 93.634 255.397 0 534.273 37.062 768.206 64.552-526.238 34.82-1259.833 121.583-1916.702 121.583 519.505 0 1087.008 54.271 1561.967 94.195-843.512 44.1-1969.299 135.38-2982.751 135.38 964.427 0 2030.583 82.662 2858.401 128.664-1621.326 91.551-3995.026 379.57-6108.888 379.57 2113.863 0 4487.562 288.019 6108.888 379.57-827.818 46.003-1893.974 128.664-2858.401 128.664 1013.452 0 2139.239 91.279 2982.751 135.38-474.959 39.924-1042.462 94.195-1561.967 94.195 656.868 0 1390.464 86.763 1916.702 121.583-233.933 27.49-512.809 64.552-768.206 64.552 405.831 0 870.958 93.583 1120.813 93.633v1.001c562.269 0 1018.078-455.809 1018.078-1018.078S11457.917 62.534 10895.74 62.426Z"/></g></svg>