<svg xmlns="http://www.w3.org/2000/svg" data-name="Layer 2" viewBox="0 0 1080 339.75"><path fill="#ff66c8" d="M0 339.75s9.32-30.76 45.31-52.91c0 0-6.23 18 0 31.15 0 0 21.46-16.61 23.53-35.3 0 0 6.92 18.31 2.77 28.53 0 0 26.3-5.69 47.07-56.91s77.53-86.52 138.44-77.53c0 0-54.68 15.92-58.84 58.14-4.15 42.22 37.38 40.15 47.76 39.45 10.38-.69 27.69-11.08 27.69-37.38s18-46.38 44.99-42.22c0 0-31.15 27.69-3.46 42.22 27.69 14.54 38.07-35.34 37.38-61.62-.69-26.29 11.08-54.67 70.6-75.43C482.77 79.17 498 25.34 488.31-.01c0 0 39.45 26.57 13.84 78.49-25.61 51.91-57.45 29.8-53.3 90.7s82.37 42.2 71.99-6.25c-10.38-48.45 8.31-54.68 34.61-62.99 26.3-8.31 36.69-9.69 50.53-23.53 0 0-12.09 29.27-50.42 40.59-32.98 9.74-9.8 54.24 14.43 37.63s32.53-24.92 45.68-9.69c0 0-27.69-1.35-21.46 24.94 6.23 26.28 15.92 29.05 2.08 58.13s-32.53 53.99-7.61 51.22 53.3-36.69 62.99-58.14c9.69-21.46 36.69-58.84 79.6-72.68 0 0-34.61 15.23-37.38 49.15s4.85 31.84-10.38 53.3-6.23 56.07 21.46 40.84c27.69-15.23 24.92-43.61 78.22-44.99 0 0-34.61 14.54-25.61 42.22 9 27.69 59.53 13.84 74.06-9 14.54-22.84 10.54-45.4-7.2-57.17 0 0 16.45-3.41 32.6 10.69 0 0-25.57-26.63 2.31-65.47 0 0-1.83 16 9.14 18.74 0 0 8.68-47.99 61.24-56.22 0 0-27.88 11.43-40.22 45.25s18.74 29.25 25.59 15.54c6.86-13.71 16.91-15.08 16.91-15.08s-17.82 17.37-7.31 40.68c10.51 23.31 10.05 33.82-8.23 42.96s-37.93 19.65-27.88 43.88c10.05 24.22 65.81 10.97 74.5-32.45 0 0 12.8 25.14-6.86 45.7 0 0 26.51 2.74 52.1-21.48 0 0-.46 20.11-11.43 27.42 0 0 21.99-13.26 40.77 1.76s42.31 15.1 42.31 15.1H0z"/></svg>